<svg id="svg" version="1.1" xmlns="http://www.w3.org/2000/svg" xmlns:xlink="http://www.w3.org/1999/xlink" width="400" height="400" viewBox="0, 0, 400,400"><g id="svgg"><path id="path0" d="M99.309 95.500 C 99.489 96.491,99.940 97.889,100.826 100.200 C 100.995 100.640,101.223 101.360,101.332 101.800 C 101.526 102.580,102.209 104.589,102.826 106.200 C 102.995 106.640,103.223 107.360,103.332 107.800 C 103.442 108.240,103.754 109.230,104.026 110.000 C 104.297 110.770,104.646 111.760,104.800 112.200 C 104.954 112.640,105.303 113.630,105.574 114.400 C 105.846 115.170,106.158 116.160,106.268 116.600 C 106.377 117.040,106.605 117.760,106.774 118.200 C 107.391 119.811,108.074 121.820,108.268 122.600 C 108.377 123.040,108.617 123.760,108.800 124.200 C 108.983 124.640,109.223 125.360,109.332 125.800 C 109.442 126.240,109.754 127.230,110.026 128.000 C 110.297 128.770,110.646 129.760,110.800 130.200 C 110.954 130.640,111.303 131.630,111.574 132.400 C 111.846 133.170,112.158 134.160,112.268 134.600 C 112.377 135.040,112.617 135.760,112.800 136.200 C 112.983 136.640,113.223 137.360,113.332 137.800 C 113.442 138.240,113.754 139.230,114.026 140.000 C 114.297 140.770,114.646 141.760,114.800 142.200 C 114.954 142.640,115.303 143.630,115.574 144.400 C 115.846 145.170,116.158 146.160,116.268 146.600 C 116.377 147.040,116.605 147.760,116.774 148.200 C 117.391 149.811,118.074 151.820,118.268 152.600 C 118.377 153.040,118.617 153.760,118.800 154.200 C 118.983 154.640,119.223 155.360,119.332 155.800 C 119.442 156.240,119.754 157.230,120.026 158.000 C 120.297 158.770,120.646 159.760,120.800 160.200 C 120.954 160.640,121.303 161.630,121.574 162.400 C 121.846 163.170,122.158 164.160,122.268 164.600 C 122.377 165.040,122.605 165.760,122.774 166.200 C 123.391 167.811,124.074 169.820,124.268 170.600 C 124.377 171.040,124.605 171.760,124.774 172.200 C 125.391 173.811,126.074 175.820,126.268 176.600 C 126.377 177.040,126.605 177.760,126.774 178.200 C 127.391 179.811,128.074 181.820,128.268 182.600 C 128.377 183.040,128.605 183.760,128.774 184.200 C 129.391 185.811,130.074 187.820,130.268 188.600 C 130.377 189.040,130.605 189.760,130.774 190.200 C 131.391 191.811,132.074 193.820,132.268 194.600 C 132.377 195.040,132.605 195.760,132.774 196.200 C 133.391 197.811,134.074 199.820,134.268 200.600 C 134.377 201.040,134.617 201.760,134.800 202.200 C 134.983 202.640,135.223 203.360,135.332 203.800 C 135.442 204.240,135.754 205.230,136.026 206.000 C 136.297 206.770,136.646 207.760,136.800 208.200 C 136.954 208.640,137.303 209.630,137.574 210.400 C 137.846 211.170,138.158 212.160,138.268 212.600 C 138.377 213.040,138.605 213.760,138.774 214.200 C 139.391 215.811,140.074 217.820,140.268 218.600 C 140.377 219.040,140.605 219.760,140.774 220.200 C 141.391 221.811,142.074 223.820,142.268 224.600 C 142.377 225.040,142.605 225.760,142.774 226.200 C 143.391 227.811,144.074 229.820,144.268 230.600 C 144.377 231.040,144.605 231.760,144.774 232.200 C 145.391 233.811,146.074 235.820,146.268 236.600 C 146.377 237.040,146.605 237.760,146.774 238.200 C 147.391 239.811,148.074 241.820,148.268 242.600 C 148.377 243.040,148.605 243.760,148.774 244.200 C 149.391 245.811,150.074 247.820,150.268 248.600 C 150.377 249.040,150.605 249.760,150.774 250.200 C 151.391 251.811,152.074 253.820,152.268 254.600 C 152.377 255.040,152.605 255.760,152.774 256.200 C 153.391 257.811,154.074 259.820,154.268 260.600 C 154.377 261.040,154.605 261.760,154.774 262.200 C 155.391 263.811,156.074 265.820,156.268 266.600 C 156.377 267.040,156.605 267.760,156.774 268.200 C 157.391 269.811,158.074 271.820,158.268 272.600 C 158.377 273.040,158.605 273.760,158.774 274.200 C 159.391 275.811,160.074 277.820,160.268 278.600 C 160.377 279.040,160.605 279.760,160.774 280.200 C 161.391 281.811,162.074 283.820,162.268 284.600 C 162.377 285.040,162.605 285.760,162.774 286.200 C 163.391 287.811,164.074 289.820,164.268 290.600 C 164.377 291.040,164.605 291.760,164.774 292.200 C 165.391 293.811,166.074 295.820,166.268 296.600 C 166.377 297.040,166.605 297.760,166.774 298.200 C 167.391 299.811,168.074 301.820,168.268 302.600 C 168.377 303.040,168.605 303.760,168.774 304.200 C 169.391 305.811,170.074 307.820,170.268 308.600 C 170.377 309.040,170.617 309.760,170.800 310.200 C 170.983 310.640,171.223 311.360,171.332 311.800 C 171.442 312.240,171.754 313.230,172.026 314.000 C 172.297 314.770,172.646 315.760,172.800 316.200 C 172.954 316.640,173.308 317.630,173.586 318.400 C 173.864 319.170,174.182 320.297,174.292 320.905 C 174.402 321.513,174.651 322.108,174.846 322.229 C 175.041 322.349,175.200 322.790,175.200 323.210 C 175.200 323.629,175.548 324.158,175.974 324.386 C 177.185 325.034,220.583 324.951,221.096 324.300 C 221.313 324.025,221.800 322.720,222.178 321.400 C 222.557 320.080,223.003 318.730,223.169 318.400 C 223.335 318.070,223.791 316.720,224.182 315.400 C 224.573 314.080,225.125 312.460,225.408 311.800 C 225.692 311.140,226.144 309.790,226.412 308.800 C 226.681 307.810,227.130 306.460,227.411 305.800 C 228.423 303.423,230.800 296.015,230.800 295.240 C 230.800 294.804,230.949 294.355,231.131 294.243 C 231.313 294.130,231.783 292.905,232.175 291.519 C 232.567 290.134,233.040 288.640,233.226 288.200 C 234.399 285.424,234.800 284.194,234.800 283.375 C 234.800 282.865,234.949 282.355,235.131 282.243 C 235.313 282.130,235.786 280.905,236.181 279.519 C 236.577 278.134,237.132 276.460,237.415 275.800 C 237.699 275.140,240.650 266.410,243.973 256.400 C 247.297 246.390,250.175 237.840,250.368 237.400 C 250.562 236.960,251.037 235.520,251.424 234.200 C 251.812 232.880,252.265 231.530,252.431 231.200 C 252.597 230.870,253.047 229.520,253.431 228.200 C 253.815 226.880,254.265 225.530,254.431 225.200 C 254.597 224.870,255.047 223.520,255.431 222.200 C 255.815 220.880,256.265 219.530,256.431 219.200 C 256.597 218.870,257.047 217.520,257.431 216.200 C 257.815 214.880,258.265 213.530,258.431 213.200 C 258.597 212.870,259.047 211.520,259.431 210.200 C 259.815 208.880,260.265 207.530,260.431 207.200 C 260.597 206.870,261.047 205.520,261.431 204.200 C 261.815 202.880,262.265 201.530,262.431 201.200 C 262.597 200.870,263.047 199.520,263.431 198.200 C 263.815 196.880,264.265 195.530,264.431 195.200 C 264.597 194.870,265.047 193.520,265.431 192.200 C 265.815 190.880,266.265 189.530,266.431 189.200 C 266.597 188.870,267.047 187.520,267.431 186.200 C 267.815 184.880,268.265 183.530,268.431 183.200 C 268.597 182.870,269.047 181.520,269.431 180.200 C 269.815 178.880,270.265 177.530,270.431 177.200 C 270.597 176.870,271.047 175.520,271.431 174.200 C 271.815 172.880,272.265 171.530,272.431 171.200 C 272.597 170.870,273.047 169.520,273.431 168.200 C 273.815 166.880,274.265 165.530,274.431 165.200 C 274.597 164.870,275.047 163.520,275.431 162.200 C 275.815 160.880,276.265 159.530,276.431 159.200 C 276.597 158.870,277.047 157.520,277.431 156.200 C 277.815 154.880,278.265 153.530,278.431 153.200 C 278.597 152.870,279.047 151.520,279.431 150.200 C 279.815 148.880,280.265 147.530,280.431 147.200 C 280.597 146.870,281.047 145.520,281.431 144.200 C 281.815 142.880,282.265 141.530,282.431 141.200 C 282.597 140.870,283.047 139.520,283.431 138.200 C 283.815 136.880,284.265 135.530,284.431 135.200 C 284.597 134.870,285.047 133.520,285.431 132.200 C 285.815 130.880,286.265 129.530,286.431 129.200 C 286.597 128.870,287.047 127.520,287.431 126.200 C 287.815 124.880,288.272 123.530,288.447 123.200 C 289.071 122.022,297.600 95.885,297.600 95.150 C 297.600 94.426,296.838 94.400,275.480 94.400 C 252.336 94.400,252.400 94.395,252.400 96.120 C 252.400 96.537,252.158 97.446,251.861 98.140 C 251.298 99.458,250.928 100.619,249.800 104.600 C 249.426 105.920,248.983 107.360,248.816 107.800 C 248.649 108.240,248.196 109.680,247.810 111.000 C 247.423 112.320,246.958 113.760,246.777 114.200 C 246.595 114.640,246.323 115.624,246.172 116.387 C 246.022 117.150,245.760 118.050,245.592 118.387 C 245.423 118.724,244.797 120.620,244.199 122.600 C 243.601 124.580,242.966 126.650,242.788 127.200 C 242.610 127.750,242.162 129.280,241.792 130.600 C 241.422 131.920,240.983 133.360,240.816 133.800 C 240.649 134.240,240.196 135.680,239.810 137.000 C 239.423 138.320,238.962 139.760,238.784 140.200 C 238.606 140.640,238.155 142.080,237.782 143.400 C 237.408 144.720,236.700 147.060,236.209 148.600 C 234.259 154.704,233.200 158.270,233.200 158.729 C 233.200 158.994,233.044 159.523,232.854 159.905 C 232.329 160.958,231.542 163.277,231.329 164.400 C 231.225 164.950,230.989 165.760,230.804 166.200 C 230.422 167.110,229.559 169.888,228.567 173.400 C 228.195 174.720,227.757 175.980,227.595 176.200 C 227.433 176.420,227.210 177.140,227.098 177.800 C 226.901 178.971,225.408 184.205,224.816 185.800 C 223.888 188.302,223.499 189.506,223.329 190.400 C 223.225 190.950,222.989 191.760,222.804 192.200 C 222.434 193.080,221.616 195.705,220.558 199.400 C 220.180 200.720,219.737 202.070,219.572 202.400 C 219.124 203.300,217.550 208.814,217.316 210.304 C 217.204 211.021,216.951 211.706,216.756 211.827 C 216.560 211.948,216.400 212.390,216.400 212.810 C 216.400 213.230,216.150 214.164,215.845 214.886 C 214.925 217.067,213.200 222.725,213.200 223.566 C 213.200 223.999,213.040 224.451,212.845 224.572 C 212.650 224.693,212.364 225.468,212.210 226.296 C 212.055 227.123,211.798 227.980,211.639 228.200 C 211.481 228.420,211.116 229.590,210.828 230.800 C 210.541 232.010,210.078 233.540,209.800 234.200 C 209.521 234.860,208.987 236.480,208.614 237.800 C 208.241 239.120,207.793 240.650,207.618 241.200 C 207.443 241.750,206.808 243.820,206.207 245.800 C 205.606 247.780,204.964 249.760,204.780 250.200 C 204.597 250.640,204.323 251.624,204.172 252.387 C 204.022 253.150,203.763 254.050,203.598 254.387 C 203.210 255.181,202.537 257.450,202.202 259.095 C 202.057 259.808,201.772 260.494,201.569 260.619 C 201.366 260.745,201.200 261.445,201.200 262.175 C 201.200 263.633,200.350 264.620,199.405 264.257 C 199.072 264.130,198.800 263.710,198.800 263.326 C 198.800 262.694,198.045 260.292,197.188 258.200 C 197.008 257.760,196.775 256.950,196.671 256.400 C 196.500 255.502,196.065 254.158,195.180 251.800 C 195.015 251.360,194.569 249.920,194.189 248.600 C 193.808 247.280,193.340 246.029,193.149 245.820 C 192.957 245.611,192.800 245.111,192.800 244.709 C 192.800 243.920,191.023 238.194,190.141 236.140 C 189.844 235.446,189.600 234.649,189.600 234.368 C 189.600 233.804,188.865 231.342,188.415 230.400 C 188.258 230.070,187.815 228.720,187.431 227.400 C 187.047 226.080,186.591 224.724,186.418 224.387 C 186.244 224.050,185.978 223.150,185.828 222.387 C 185.677 221.624,185.408 220.640,185.231 220.200 C 185.054 219.760,184.599 218.410,184.221 217.200 C 183.842 215.990,183.388 214.640,183.213 214.200 C 183.037 213.760,182.577 212.320,182.190 211.000 C 181.804 209.680,181.351 208.240,181.184 207.800 C 181.017 207.360,180.569 205.920,180.189 204.600 C 179.808 203.280,179.340 202.029,179.149 201.820 C 178.957 201.611,178.800 201.024,178.800 200.515 C 178.800 200.006,178.631 199.277,178.423 198.895 C 178.216 198.513,177.748 197.120,177.383 195.800 C 177.019 194.480,176.563 193.040,176.371 192.600 C 175.636 190.917,174.811 188.166,174.806 187.380 C 174.803 186.929,174.643 186.389,174.451 186.180 C 174.260 185.971,173.795 184.720,173.418 183.400 C 173.042 182.080,172.581 180.707,172.394 180.349 C 172.207 179.991,171.932 179.044,171.782 178.245 C 171.632 177.445,171.350 176.693,171.155 176.572 C 170.960 176.451,170.800 175.964,170.800 175.490 C 170.800 174.731,170.192 172.721,169.201 170.200 C 169.028 169.760,168.398 167.780,167.801 165.800 C 167.204 163.820,166.465 161.609,166.158 160.886 C 165.851 160.164,165.600 159.230,165.600 158.810 C 165.600 158.390,165.420 157.936,165.200 157.800 C 164.980 157.664,164.800 157.111,164.800 156.571 C 164.800 156.031,164.631 155.277,164.423 154.895 C 164.216 154.513,163.748 153.120,163.383 151.800 C 163.019 150.480,162.562 149.040,162.369 148.600 C 162.176 148.160,161.769 146.990,161.464 146.000 C 161.160 145.010,160.414 142.580,159.806 140.600 C 159.199 138.620,158.548 136.640,158.360 136.200 C 157.968 135.283,157.207 132.861,156.222 129.400 C 155.846 128.080,155.397 126.640,155.224 126.200 C 155.051 125.760,154.599 124.410,154.221 123.200 C 153.842 121.990,153.381 120.640,153.196 120.200 C 153.011 119.760,152.775 118.950,152.671 118.400 C 152.500 117.502,152.065 116.158,151.180 113.800 C 151.015 113.360,150.569 111.920,150.189 110.600 C 149.808 109.280,149.340 108.029,149.149 107.820 C 148.957 107.611,148.800 107.111,148.800 106.709 C 148.800 105.920,147.023 100.194,146.141 98.140 C 145.844 97.446,145.600 96.537,145.600 96.120 C 145.600 94.393,145.697 94.400,121.875 94.400 L 99.109 94.400 99.309 95.500 " stroke="none" fill="#fbfbfb" fill-rule="evenodd"></path><path id="path1" d="M98.950 94.587 C 98.826 94.910,98.817 95.405,98.931 95.687 C 99.044 95.969,99.151 95.795,99.168 95.300 L 99.200 94.400 121.920 94.400 C 145.555 94.400,145.600 94.403,145.600 96.054 C 145.600 96.922,146.361 98.972,146.597 98.737 C 146.899 98.434,145.613 94.656,145.095 94.327 C 144.082 93.683,99.200 93.936,98.950 94.587 M252.905 94.327 C 252.387 94.656,251.101 98.434,251.403 98.737 C 251.639 98.972,252.400 96.922,252.400 96.054 C 252.400 94.405,252.470 94.400,275.532 94.400 L 297.705 94.400 297.468 95.700 C 297.338 96.415,297.122 97.450,296.988 98.000 C 296.799 98.779,296.836 98.860,297.156 98.365 C 297.998 97.064,298.351 94.467,297.719 94.224 C 296.807 93.874,253.461 93.973,252.905 94.327 M99.214 96.547 C 99.179 97.405,101.015 102.063,101.138 101.428 C 101.213 101.036,101.078 100.518,100.838 100.278 C 100.597 100.037,100.394 99.471,100.386 99.020 C 100.372 98.228,99.243 95.844,99.214 96.547 M146.830 99.516 C 146.784 100.309,148.515 105.455,148.671 104.988 C 148.746 104.763,148.369 103.323,147.833 101.789 C 147.298 100.255,146.846 99.232,146.830 99.516 M250.057 102.182 C 249.560 103.890,249.243 105.376,249.351 105.484 C 249.459 105.592,249.748 104.898,249.992 103.940 C 250.237 102.983,250.627 101.714,250.859 101.120 C 251.091 100.527,251.208 99.824,251.120 99.559 C 251.031 99.294,250.553 100.474,250.057 102.182 M295.600 101.800 C 295.115 103.258,294.807 104.540,294.916 104.650 C 295.026 104.759,295.503 103.647,295.978 102.178 C 296.452 100.709,296.760 99.427,296.661 99.328 C 296.563 99.230,296.085 100.342,295.600 101.800 M101.214 102.547 C 101.179 103.405,103.015 108.063,103.138 107.428 C 103.213 107.036,103.078 106.518,102.838 106.278 C 102.597 106.037,102.394 105.471,102.386 105.020 C 102.372 104.228,101.243 101.844,101.214 102.547 M293.600 107.800 C 293.115 109.258,292.807 110.540,292.916 110.650 C 293.026 110.759,293.503 109.647,293.978 108.178 C 294.452 106.709,294.760 105.427,294.661 105.328 C 294.563 105.230,294.085 106.342,293.600 107.800 M148.830 106.476 C 148.813 107.068,148.958 107.650,149.151 107.770 C 149.344 107.889,149.726 108.844,149.999 109.893 C 150.273 110.942,150.567 111.615,150.652 111.389 C 150.738 111.163,150.369 109.723,149.833 108.189 C 149.158 106.256,148.850 105.730,148.830 106.476 M248.422 107.646 C 247.875 109.414,246.319 114.355,245.593 116.628 C 245.105 118.155,245.099 118.510,245.565 118.222 C 245.766 118.097,246.058 117.239,246.215 116.313 C 246.371 115.388,246.639 114.354,246.810 114.015 C 246.980 113.677,247.433 112.320,247.816 111.000 C 248.199 109.680,248.688 108.213,248.903 107.739 C 249.117 107.266,249.219 106.657,249.128 106.385 C 249.038 106.114,248.720 106.681,248.422 107.646 M103.214 108.547 C 103.179 109.405,105.015 114.063,105.138 113.428 C 105.213 113.036,105.078 112.518,104.838 112.278 C 104.597 112.037,104.394 111.471,104.386 111.020 C 104.372 110.228,103.243 107.844,103.214 108.547 M291.600 113.800 C 291.115 115.258,290.807 116.540,290.916 116.650 C 291.026 116.759,291.503 115.647,291.978 114.178 C 292.452 112.709,292.760 111.427,292.661 111.328 C 292.563 111.230,292.085 112.342,291.600 113.800 M150.800 112.710 C 150.800 113.173,150.980 113.664,151.200 113.800 C 151.420 113.936,151.606 114.442,151.614 114.924 C 151.628 115.770,152.757 118.183,152.786 117.427 C 152.801 117.025,151.195 112.309,150.949 112.033 C 150.867 111.942,150.800 112.246,150.800 112.710 M105.214 114.547 C 105.179 115.405,107.015 120.063,107.138 119.428 C 107.213 119.036,107.078 118.518,106.838 118.278 C 106.597 118.037,106.394 117.471,106.386 117.020 C 106.372 116.228,105.243 113.844,105.214 114.547 M289.600 119.800 C 289.115 121.258,288.807 122.540,288.916 122.650 C 289.026 122.759,289.503 121.647,289.978 120.178 C 290.452 118.709,290.760 117.427,290.661 117.328 C 290.563 117.230,290.085 118.342,289.600 119.800 M152.823 118.820 C 152.810 119.381,152.943 120.011,153.118 120.220 C 153.293 120.429,153.764 121.680,154.164 123.000 C 154.565 124.320,155.045 125.760,155.230 126.200 C 155.415 126.640,155.779 127.810,156.038 128.800 C 156.297 129.790,156.578 130.408,156.663 130.174 C 156.748 129.940,155.924 127.060,154.832 123.774 C 153.740 120.488,152.836 118.259,152.823 118.820 M244.022 121.822 C 243.548 123.291,243.239 124.573,243.337 124.671 C 243.435 124.768,243.903 123.647,244.378 122.178 C 244.852 120.709,245.161 119.427,245.063 119.329 C 244.965 119.232,244.497 120.353,244.022 121.822 M107.214 120.547 C 107.179 121.405,109.015 126.063,109.138 125.428 C 109.213 125.036,109.078 124.518,108.838 124.278 C 108.597 124.037,108.394 123.471,108.386 123.020 C 108.372 122.228,107.243 119.844,107.214 120.547 M288.224 123.643 C 287.214 126.526,286.815 127.892,286.836 128.400 C 286.849 128.730,287.295 127.754,287.827 126.230 C 288.359 124.707,288.710 123.377,288.607 123.273 C 288.503 123.170,288.331 123.336,288.224 123.643 M242.038 128.160 C 241.533 129.861,241.216 131.349,241.334 131.467 C 241.451 131.584,241.748 130.898,241.992 129.940 C 242.237 128.983,242.627 127.714,242.859 127.120 C 243.091 126.527,243.207 125.822,243.118 125.554 C 243.029 125.287,242.543 126.459,242.038 128.160 M109.214 126.547 C 109.179 127.405,111.015 132.063,111.138 131.428 C 111.213 131.036,111.078 130.518,110.838 130.278 C 110.597 130.037,110.394 129.471,110.386 129.020 C 110.372 128.228,109.243 125.844,109.214 126.547 M286.224 129.643 C 285.214 132.526,284.815 133.892,284.836 134.400 C 284.849 134.730,285.295 133.754,285.827 132.230 C 286.359 130.707,286.710 129.377,286.607 129.273 C 286.503 129.170,286.331 129.336,286.224 129.643 M156.800 131.158 C 156.800 131.985,158.090 135.775,158.517 136.200 C 158.785 136.467,158.817 136.334,158.614 135.800 C 158.447 135.360,158.072 134.126,157.780 133.059 C 157.249 131.110,156.800 130.241,156.800 131.158 M239.891 135.237 C 237.422 143.011,237.125 144.059,237.331 144.265 C 237.450 144.383,237.747 143.698,237.990 142.740 C 238.234 141.783,238.585 140.640,238.770 140.200 C 238.955 139.760,239.423 138.320,239.810 137.000 C 240.196 135.680,240.688 134.213,240.903 133.739 C 241.117 133.266,241.218 132.653,241.126 132.377 C 241.034 132.101,240.478 133.388,239.891 135.237 M111.214 132.547 C 111.179 133.405,113.015 138.063,113.138 137.428 C 113.213 137.036,113.078 136.518,112.838 136.278 C 112.597 136.037,112.394 135.471,112.386 135.020 C 112.372 134.228,111.243 131.844,111.214 132.547 M284.224 135.643 C 283.214 138.526,282.815 139.892,282.836 140.400 C 282.849 140.730,283.295 139.754,283.827 138.230 C 284.359 136.707,284.710 135.377,284.607 135.273 C 284.503 135.170,284.331 135.336,284.224 135.643 M158.800 137.416 C 158.800 138.004,160.509 142.824,160.663 142.671 C 160.861 142.472,159.226 137.200,158.965 137.200 C 158.874 137.200,158.800 137.297,158.800 137.416 M113.214 138.547 C 113.179 139.405,115.015 144.063,115.138 143.428 C 115.213 143.036,115.078 142.518,114.838 142.278 C 114.597 142.037,114.394 141.471,114.386 141.020 C 114.372 140.228,113.243 137.844,113.214 138.547 M282.224 141.643 C 281.214 144.526,280.815 145.892,280.836 146.400 C 280.849 146.730,281.295 145.754,281.827 144.230 C 282.359 142.707,282.710 141.377,282.607 141.273 C 282.503 141.170,282.331 141.336,282.224 141.643 M160.836 143.600 C 160.815 144.108,161.214 145.474,162.224 148.357 C 162.331 148.664,162.503 148.830,162.607 148.727 C 162.710 148.623,162.359 147.293,161.827 145.770 C 161.295 144.246,160.849 143.270,160.836 143.600 M115.214 144.547 C 115.179 145.405,117.015 150.063,117.138 149.428 C 117.213 149.036,117.078 148.518,116.838 148.278 C 116.597 148.037,116.394 147.471,116.386 147.020 C 116.372 146.228,115.243 143.844,115.214 144.547 M236.408 146.460 C 236.163 147.417,235.767 148.701,235.527 149.313 C 235.288 149.925,235.190 150.523,235.309 150.642 C 235.428 150.761,235.928 149.582,236.421 148.021 C 236.914 146.460,237.212 145.079,237.085 144.951 C 236.957 144.824,236.652 145.502,236.408 146.460 M280.224 147.643 C 279.214 150.526,278.815 151.892,278.836 152.400 C 278.849 152.730,279.295 151.754,279.827 150.230 C 280.359 148.707,280.710 147.377,280.607 147.273 C 280.503 147.170,280.331 147.336,280.224 147.643 M162.840 149.525 C 162.818 149.814,163.087 150.984,163.438 152.125 C 163.789 153.266,164.153 154.451,164.247 154.757 C 164.342 155.064,164.499 155.234,164.598 155.135 C 164.697 155.037,164.350 153.616,163.828 151.978 C 163.306 150.340,162.861 149.236,162.840 149.525 M117.214 150.547 C 117.179 151.405,119.015 156.063,119.138 155.428 C 119.213 155.036,119.078 154.518,118.838 154.278 C 118.597 154.037,118.394 153.471,118.386 153.020 C 118.372 152.228,117.243 149.844,117.214 150.547 M234.000 154.200 C 233.484 155.847,233.150 157.283,233.259 157.392 C 233.368 157.501,233.872 156.235,234.380 154.580 C 234.888 152.925,235.221 151.488,235.121 151.388 C 235.021 151.288,234.516 152.553,234.000 154.200 M278.224 153.643 C 277.214 156.526,276.815 157.892,276.836 158.400 C 276.849 158.730,277.295 157.754,277.827 156.230 C 278.359 154.707,278.710 153.377,278.607 153.273 C 278.503 153.170,278.331 153.336,278.224 153.643 M164.800 156.710 C 164.800 157.173,164.980 157.664,165.200 157.800 C 165.420 157.936,165.606 158.442,165.614 158.924 C 165.628 159.770,166.757 162.183,166.786 161.427 C 166.801 161.025,165.195 156.309,164.949 156.033 C 164.867 155.942,164.800 156.246,164.800 156.710 M119.214 156.547 C 119.179 157.405,121.015 162.063,121.138 161.428 C 121.213 161.036,121.078 160.518,120.838 160.278 C 120.597 160.037,120.394 159.471,120.386 159.020 C 120.372 158.228,119.243 155.844,119.214 156.547 M232.081 160.484 C 231.597 161.960,231.206 163.310,231.214 163.484 C 231.245 164.162,232.372 161.752,232.386 160.980 C 232.394 160.529,232.597 159.963,232.838 159.722 C 233.078 159.482,233.205 158.951,233.119 158.542 C 233.026 158.102,232.604 158.891,232.081 160.484 M276.224 159.643 C 275.214 162.526,274.815 163.892,274.836 164.400 C 274.849 164.730,275.295 163.754,275.827 162.230 C 276.359 160.707,276.710 159.377,276.607 159.273 C 276.503 159.170,276.331 159.336,276.224 159.643 M166.828 162.352 C 166.802 162.865,168.489 168.404,169.219 170.200 C 169.398 170.640,169.766 171.720,170.037 172.600 C 170.309 173.480,170.584 174.020,170.649 173.800 C 170.714 173.580,169.888 170.790,168.812 167.600 C 167.736 164.410,166.844 162.048,166.828 162.352 M121.214 162.547 C 121.179 163.405,123.015 168.063,123.138 167.428 C 123.213 167.036,123.078 166.518,122.838 166.278 C 122.597 166.037,122.394 165.471,122.386 165.020 C 122.372 164.228,121.243 161.844,121.214 162.547 M230.082 166.861 C 229.577 168.421,229.244 169.777,229.342 169.875 C 229.440 169.973,229.731 169.367,229.988 168.527 C 230.245 167.687,230.641 166.619,230.867 166.153 C 231.094 165.686,231.216 165.017,231.139 164.665 C 231.063 164.313,230.587 165.301,230.082 166.861 M274.224 165.643 C 273.214 168.526,272.815 169.892,272.836 170.400 C 272.849 170.730,273.295 169.754,273.827 168.230 C 274.359 166.707,274.710 165.377,274.607 165.273 C 274.503 165.170,274.331 165.336,274.224 165.643 M123.214 168.547 C 123.179 169.405,125.015 174.063,125.138 173.428 C 125.213 173.036,125.078 172.518,124.838 172.278 C 124.597 172.037,124.394 171.471,124.386 171.020 C 124.372 170.228,123.243 167.844,123.214 168.547 M228.413 172.460 C 228.171 173.417,227.799 174.613,227.586 175.119 C 227.106 176.260,227.092 176.678,227.549 176.180 C 228.062 175.620,229.354 171.221,229.084 170.951 C 228.957 170.823,228.655 171.502,228.413 172.460 M272.224 171.643 C 271.214 174.526,270.815 175.892,270.836 176.400 C 270.849 176.730,271.295 175.754,271.827 174.230 C 272.359 172.707,272.710 171.377,272.607 171.273 C 272.503 171.170,272.331 171.336,272.224 171.643 M125.214 174.547 C 125.179 175.405,127.015 180.063,127.138 179.428 C 127.213 179.036,127.078 178.518,126.838 178.278 C 126.597 178.037,126.394 177.471,126.386 177.020 C 126.372 176.228,125.243 173.844,125.214 174.547 M170.800 175.576 C 170.800 176.003,170.964 176.454,171.165 176.578 C 171.366 176.703,171.652 177.522,171.800 178.400 C 171.948 179.278,172.234 180.097,172.435 180.222 C 172.947 180.538,172.908 180.300,171.965 177.384 C 171.102 174.710,170.800 174.242,170.800 175.576 M226.000 180.200 C 225.484 181.847,225.150 183.283,225.259 183.392 C 225.368 183.501,225.872 182.235,226.380 180.580 C 226.888 178.925,227.221 177.488,227.121 177.388 C 227.021 177.288,226.516 178.553,226.000 180.200 M270.224 177.643 C 269.214 180.526,268.815 181.892,268.836 182.400 C 268.849 182.730,269.295 181.754,269.827 180.230 C 270.359 178.707,270.710 177.377,270.607 177.273 C 270.503 177.170,270.331 177.336,270.224 177.643 M127.214 180.547 C 127.179 181.405,129.015 186.063,129.138 185.428 C 129.213 185.036,129.078 184.518,128.838 184.278 C 128.597 184.037,128.394 183.471,128.386 183.020 C 128.372 182.228,127.243 179.844,127.214 180.547 M172.800 181.425 C 172.800 182.046,174.168 185.853,174.517 186.200 C 174.785 186.467,174.819 186.334,174.620 185.800 C 174.456 185.360,174.063 184.145,173.746 183.100 C 173.250 181.466,172.800 180.669,172.800 181.425 M268.224 183.643 C 267.214 186.526,266.815 187.892,266.836 188.400 C 266.849 188.730,267.295 187.754,267.827 186.230 C 268.359 184.707,268.710 183.377,268.607 183.273 C 268.503 183.170,268.331 183.336,268.224 183.643 M224.081 186.484 C 223.597 187.960,223.206 189.310,223.214 189.484 C 223.245 190.162,224.372 187.752,224.386 186.980 C 224.394 186.529,224.597 185.963,224.838 185.722 C 225.078 185.482,225.205 184.951,225.119 184.542 C 225.026 184.102,224.604 184.891,224.081 186.484 M129.214 186.547 C 129.179 187.405,131.015 192.063,131.138 191.428 C 131.213 191.036,131.078 190.518,130.838 190.278 C 130.597 190.037,130.394 189.471,130.386 189.020 C 130.372 188.228,129.243 185.844,129.214 186.547 M174.836 187.600 C 174.815 188.108,175.214 189.474,176.224 192.357 C 176.331 192.664,176.503 192.830,176.607 192.727 C 176.710 192.623,176.359 191.293,175.827 189.770 C 175.295 188.246,174.849 187.270,174.836 187.600 M266.224 189.643 C 265.214 192.526,264.815 193.892,264.836 194.400 C 264.849 194.730,265.295 193.754,265.827 192.230 C 266.359 190.707,266.710 189.377,266.607 189.273 C 266.503 189.170,266.331 189.336,266.224 189.643 M222.082 192.861 C 221.577 194.421,221.244 195.777,221.342 195.875 C 221.440 195.973,221.731 195.367,221.988 194.527 C 222.245 193.687,222.641 192.619,222.867 192.153 C 223.094 191.686,223.216 191.017,223.139 190.665 C 223.063 190.313,222.587 191.301,222.082 192.861 M131.214 192.547 C 131.179 193.405,133.015 198.063,133.138 197.428 C 133.213 197.036,133.078 196.518,132.838 196.278 C 132.597 196.037,132.394 195.471,132.386 195.020 C 132.372 194.228,131.243 191.844,131.214 192.547 M176.840 193.525 C 176.818 193.814,177.087 194.984,177.438 196.125 C 177.789 197.266,178.153 198.451,178.247 198.757 C 178.342 199.064,178.499 199.234,178.598 199.135 C 178.697 199.037,178.350 197.616,177.828 195.978 C 177.306 194.340,176.861 193.236,176.840 193.525 M264.224 195.643 C 263.214 198.526,262.815 199.892,262.836 200.400 C 262.849 200.730,263.295 199.754,263.827 198.230 C 264.359 196.707,264.710 195.377,264.607 195.273 C 264.503 195.170,264.331 195.336,264.224 195.643 M220.413 198.460 C 220.171 199.417,219.799 200.613,219.586 201.119 C 219.106 202.260,219.092 202.678,219.549 202.180 C 220.062 201.620,221.354 197.221,221.084 196.951 C 220.957 196.823,220.655 197.502,220.413 198.460 M133.214 198.547 C 133.179 199.405,135.015 204.063,135.138 203.428 C 135.213 203.036,135.078 202.518,134.838 202.278 C 134.597 202.037,134.394 201.471,134.386 201.020 C 134.372 200.228,133.243 197.844,133.214 198.547 M178.830 200.476 C 178.813 201.068,178.958 201.650,179.151 201.770 C 179.344 201.889,179.726 202.844,179.999 203.893 C 180.273 204.942,180.567 205.615,180.652 205.389 C 180.738 205.163,180.369 203.723,179.833 202.189 C 179.158 200.256,178.850 199.730,178.830 200.476 M262.224 201.643 C 261.214 204.526,260.815 205.892,260.836 206.400 C 260.849 206.730,261.295 205.754,261.827 204.230 C 262.359 202.707,262.710 201.377,262.607 201.273 C 262.503 201.170,262.331 201.336,262.224 201.643 M218.000 206.000 C 217.529 207.582,217.233 208.967,217.343 209.077 C 217.453 209.187,217.929 207.982,218.400 206.400 C 218.871 204.818,219.167 203.433,219.057 203.323 C 218.947 203.213,218.471 204.418,218.000 206.000 M135.214 204.547 C 135.179 205.405,137.015 210.063,137.138 209.428 C 137.213 209.036,137.078 208.518,136.838 208.278 C 136.597 208.037,136.394 207.471,136.386 207.020 C 136.372 206.228,135.243 203.844,135.214 204.547 M180.800 206.605 C 180.800 206.938,180.958 207.523,181.150 207.905 C 181.343 208.287,181.814 209.680,182.197 211.000 C 182.580 212.320,183.037 213.760,183.213 214.200 C 183.388 214.640,183.839 215.990,184.214 217.200 C 184.590 218.410,185.033 219.677,185.199 220.015 C 185.365 220.354,185.629 221.388,185.785 222.313 C 185.942 223.239,186.234 224.097,186.435 224.222 C 186.902 224.510,186.895 224.154,186.406 222.628 C 186.190 221.953,185.403 219.510,184.657 217.200 C 183.911 214.890,182.802 211.425,182.192 209.500 C 181.095 206.040,180.800 205.426,180.800 206.605 M260.224 207.643 C 259.214 210.526,258.815 211.892,258.836 212.400 C 258.849 212.730,259.295 211.754,259.827 210.230 C 260.359 208.707,260.710 207.377,260.607 207.273 C 260.503 207.170,260.331 207.336,260.224 207.643 M216.204 212.000 C 215.142 215.506,215.070 215.976,215.773 214.800 C 216.102 214.250,216.378 213.431,216.386 212.980 C 216.394 212.529,216.595 211.965,216.834 211.726 C 217.072 211.488,217.206 210.867,217.130 210.346 C 217.032 209.674,216.763 210.153,216.204 212.000 M137.214 210.547 C 137.179 211.405,139.015 216.063,139.138 215.428 C 139.213 215.036,139.078 214.518,138.838 214.278 C 138.597 214.037,138.394 213.471,138.386 213.020 C 138.372 212.228,137.243 209.844,137.214 210.547 M258.224 213.643 C 257.214 216.526,256.815 217.892,256.836 218.400 C 256.849 218.730,257.295 217.754,257.827 216.230 C 258.359 214.707,258.710 213.377,258.607 213.273 C 258.503 213.170,258.331 213.336,258.224 213.643 M213.466 220.867 C 212.634 223.580,211.784 226.213,211.577 226.719 C 211.099 227.883,211.095 228.512,211.565 228.222 C 211.766 228.097,212.052 227.278,212.200 226.400 C 212.348 225.522,212.634 224.703,212.835 224.578 C 213.036 224.454,213.200 223.989,213.200 223.544 C 213.200 223.099,213.663 221.393,214.229 219.754 C 214.795 218.114,215.195 216.584,215.118 216.354 C 215.041 216.123,214.298 218.154,213.466 220.867 M139.214 216.547 C 139.179 217.405,141.015 222.063,141.138 221.428 C 141.213 221.036,141.078 220.518,140.838 220.278 C 140.597 220.037,140.394 219.471,140.386 219.020 C 140.372 218.228,139.243 215.844,139.214 216.547 M256.224 219.643 C 255.214 222.526,254.815 223.892,254.836 224.400 C 254.849 224.730,255.295 223.754,255.827 222.230 C 256.359 220.707,256.710 219.377,256.607 219.273 C 256.503 219.170,256.331 219.336,256.224 219.643 M141.214 222.547 C 141.179 223.405,143.015 228.063,143.138 227.428 C 143.213 227.036,143.078 226.518,142.838 226.278 C 142.597 226.037,142.394 225.471,142.386 225.020 C 142.372 224.228,141.243 221.844,141.214 222.547 M186.800 225.158 C 186.800 225.985,188.090 229.775,188.517 230.200 C 188.785 230.467,188.817 230.334,188.614 229.800 C 188.447 229.360,188.072 228.126,187.780 227.059 C 187.249 225.110,186.800 224.241,186.800 225.158 M254.224 225.643 C 253.214 228.526,252.815 229.892,252.836 230.400 C 252.849 230.730,253.295 229.754,253.827 228.230 C 254.359 226.707,254.710 225.377,254.607 225.273 C 254.503 225.170,254.331 225.336,254.224 225.643 M143.214 228.547 C 143.179 229.405,145.015 234.063,145.138 233.428 C 145.213 233.036,145.078 232.518,144.838 232.278 C 144.597 232.037,144.394 231.471,144.386 231.020 C 144.372 230.228,143.243 227.844,143.214 228.547 M210.169 231.457 C 209.797 232.746,209.399 234.070,209.287 234.400 C 209.148 234.807,209.216 234.871,209.497 234.600 C 210.002 234.113,211.327 229.594,211.047 229.314 C 210.937 229.204,210.542 230.168,210.169 231.457 M188.981 232.100 C 189.131 232.595,189.432 233.720,189.650 234.600 C 189.868 235.480,190.242 236.380,190.482 236.600 C 190.784 236.877,190.855 236.816,190.713 236.400 C 190.601 236.070,190.209 234.765,189.843 233.500 C 189.477 232.235,189.072 231.200,188.942 231.200 C 188.813 231.200,188.830 231.605,188.981 232.100 M252.224 231.643 C 251.214 234.526,250.815 235.892,250.836 236.400 C 250.849 236.730,251.295 235.754,251.827 234.230 C 252.359 232.707,252.710 231.377,252.607 231.273 C 252.503 231.170,252.331 231.336,252.224 231.643 M145.214 234.547 C 145.179 235.405,147.015 240.063,147.138 239.428 C 147.213 239.036,147.078 238.518,146.838 238.278 C 146.597 238.037,146.394 237.471,146.386 237.020 C 146.372 236.228,145.243 233.844,145.214 234.547 M208.057 238.182 C 207.560 239.890,207.243 241.376,207.351 241.484 C 207.459 241.592,207.748 240.898,207.992 239.940 C 208.237 238.983,208.627 237.714,208.859 237.120 C 209.091 236.527,209.208 235.824,209.120 235.559 C 209.031 235.294,208.553 236.474,208.057 238.182 M190.842 237.600 C 190.821 237.930,191.249 239.460,191.793 241.000 C 192.338 242.540,192.787 244.194,192.792 244.676 C 192.796 245.158,192.958 245.650,193.151 245.770 C 193.344 245.889,193.726 246.844,193.999 247.893 C 194.273 248.942,194.564 249.620,194.645 249.400 C 194.727 249.180,193.913 246.300,192.837 243.000 C 191.762 239.700,190.864 237.270,190.842 237.600 M250.222 237.643 C 249.264 240.357,248.773 242.106,248.927 242.260 C 249.028 242.362,249.490 241.323,249.953 239.953 C 250.416 238.582,250.710 237.377,250.607 237.273 C 250.503 237.170,250.330 237.336,250.222 237.643 M147.214 240.547 C 147.179 241.405,149.015 246.063,149.138 245.428 C 149.213 245.036,149.078 244.518,148.838 244.278 C 148.597 244.037,148.394 243.471,148.386 243.020 C 148.372 242.228,147.243 239.844,147.214 240.547 M205.447 246.917 C 204.610 249.603,203.762 252.213,203.562 252.719 C 203.099 253.894,203.100 254.509,203.565 254.222 C 203.766 254.097,204.058 253.239,204.215 252.313 C 204.371 251.388,204.640 250.354,204.813 250.015 C 205.401 248.863,207.340 242.407,207.154 242.220 C 207.052 242.118,206.283 244.232,205.447 246.917 M247.622 245.422 C 247.148 246.891,246.839 248.173,246.937 248.271 C 247.035 248.368,247.503 247.247,247.978 245.778 C 248.452 244.309,248.761 243.027,248.663 242.929 C 248.565 242.832,248.097 243.953,247.622 245.422 M149.214 246.547 C 149.179 247.405,151.015 252.063,151.138 251.428 C 151.213 251.036,151.078 250.518,150.838 250.278 C 150.597 250.037,150.394 249.471,150.386 249.020 C 150.372 248.228,149.243 245.844,149.214 246.547 M245.622 251.422 C 245.148 252.891,244.840 254.173,244.939 254.272 C 245.037 254.370,245.515 253.258,246.000 251.800 C 246.485 250.342,246.793 249.060,246.684 248.950 C 246.574 248.841,246.097 249.953,245.622 251.422 M194.800 250.710 C 194.800 251.173,194.980 251.664,195.200 251.800 C 195.420 251.936,195.606 252.442,195.614 252.924 C 195.628 253.770,196.757 256.183,196.786 255.427 C 196.801 255.025,195.195 250.309,194.949 250.033 C 194.867 249.942,194.800 250.246,194.800 250.710 M151.214 252.547 C 151.179 253.405,153.015 258.063,153.138 257.428 C 153.213 257.036,153.078 256.518,152.838 256.278 C 152.597 256.037,152.394 255.471,152.386 255.020 C 152.372 254.228,151.243 251.844,151.214 252.547 M243.622 257.422 C 243.148 258.891,242.839 260.173,242.937 260.271 C 243.035 260.368,243.503 259.247,243.978 257.778 C 244.452 256.309,244.761 255.027,244.663 254.929 C 244.565 254.832,244.097 255.953,243.622 257.422 M202.072 257.781 C 201.608 259.311,201.307 260.641,201.403 260.737 C 201.625 260.958,202.400 258.945,202.400 258.148 C 202.400 257.818,202.592 257.189,202.826 256.752 C 203.060 256.314,203.176 255.741,203.084 255.478 C 202.991 255.215,202.536 256.252,202.072 257.781 M196.818 256.820 C 196.808 257.381,196.950 258.011,197.133 258.220 C 197.315 258.429,197.688 259.383,197.960 260.339 C 198.233 261.295,198.544 261.990,198.652 261.882 C 198.760 261.774,198.395 260.361,197.841 258.743 C 197.233 256.964,196.828 256.203,196.818 256.820 M153.214 258.547 C 153.179 259.405,155.015 264.063,155.138 263.428 C 155.213 263.036,155.078 262.518,154.838 262.278 C 154.597 262.037,154.394 261.471,154.386 261.020 C 154.372 260.228,153.243 257.844,153.214 258.547 M241.622 263.422 C 241.148 264.891,240.839 266.173,240.937 266.271 C 241.035 266.368,241.503 265.247,241.978 263.778 C 242.452 262.309,242.761 261.027,242.663 260.929 C 242.565 260.832,242.097 261.953,241.622 263.422 M200.860 261.851 C 200.774 263.066,199.661 263.941,199.176 263.174 C 198.879 262.705,198.811 262.730,198.806 263.313 C 198.803 263.704,199.084 264.134,199.431 264.267 C 200.387 264.634,201.290 263.485,201.092 262.154 C 200.976 261.379,200.900 261.280,200.860 261.851 M155.214 264.547 C 155.179 265.405,157.015 270.063,157.138 269.428 C 157.213 269.036,157.078 268.518,156.838 268.278 C 156.597 268.037,156.394 267.471,156.386 267.020 C 156.372 266.228,155.243 263.844,155.214 264.547 M239.622 269.422 C 239.148 270.891,238.840 272.173,238.939 272.272 C 239.037 272.370,239.515 271.258,240.000 269.800 C 240.485 268.342,240.793 267.060,240.684 266.950 C 240.574 266.841,240.097 267.953,239.622 269.422 M157.214 270.547 C 157.179 271.405,159.015 276.063,159.138 275.428 C 159.213 275.036,159.078 274.518,158.838 274.278 C 158.597 274.037,158.394 273.471,158.386 273.020 C 158.372 272.228,157.243 269.844,157.214 270.547 M237.988 274.273 C 237.717 275.113,237.324 276.016,237.115 276.281 C 236.905 276.545,236.797 277.085,236.875 277.481 C 236.956 277.899,237.402 277.141,237.941 275.667 C 238.450 274.274,238.780 273.047,238.673 272.940 C 238.567 272.834,238.258 273.433,237.988 274.273 M159.214 276.547 C 159.179 277.405,161.015 282.063,161.138 281.428 C 161.213 281.036,161.078 280.518,160.838 280.278 C 160.597 280.037,160.394 279.471,160.386 279.020 C 160.372 278.228,159.243 275.844,159.214 276.547 M236.033 280.110 C 235.734 281.161,235.335 282.117,235.145 282.234 C 234.955 282.351,234.809 282.932,234.821 283.524 C 234.836 284.305,235.110 283.886,235.819 282.000 C 236.357 280.570,236.747 279.130,236.686 278.800 C 236.625 278.470,236.331 279.060,236.033 280.110 M161.214 282.547 C 161.179 283.405,163.015 288.063,163.138 287.428 C 163.213 287.036,163.078 286.518,162.838 286.278 C 162.597 286.037,162.394 285.471,162.386 285.020 C 162.372 284.228,161.243 281.844,161.214 282.547 M233.988 286.273 C 233.717 287.113,233.324 288.016,233.115 288.281 C 232.905 288.545,232.797 289.085,232.875 289.481 C 232.956 289.899,233.402 289.141,233.941 287.667 C 234.450 286.274,234.780 285.047,234.673 284.940 C 234.567 284.834,234.258 285.433,233.988 286.273 M163.214 288.547 C 163.179 289.405,165.015 294.063,165.138 293.428 C 165.213 293.036,165.078 292.518,164.838 292.278 C 164.597 292.037,164.394 291.471,164.386 291.020 C 164.372 290.228,163.243 287.844,163.214 288.547 M232.033 292.110 C 231.734 293.161,231.335 294.117,231.145 294.234 C 230.955 294.351,230.809 294.932,230.821 295.524 C 230.836 296.305,231.110 295.886,231.819 294.000 C 232.357 292.570,232.747 291.130,232.686 290.800 C 232.625 290.470,232.331 291.060,232.033 292.110 M165.214 294.547 C 165.179 295.405,167.015 300.063,167.138 299.428 C 167.213 299.036,167.078 298.518,166.838 298.278 C 166.597 298.037,166.394 297.471,166.386 297.020 C 166.372 296.228,165.243 293.844,165.214 294.547 M229.622 299.422 C 229.148 300.891,228.839 302.173,228.937 302.271 C 229.035 302.368,229.503 301.247,229.978 299.778 C 230.452 298.309,230.761 297.027,230.663 296.929 C 230.565 296.832,230.097 297.953,229.622 299.422 M167.214 300.547 C 167.179 301.405,169.015 306.063,169.138 305.428 C 169.213 305.036,169.078 304.518,168.838 304.278 C 168.597 304.037,168.394 303.471,168.386 303.020 C 168.372 302.228,167.243 299.844,167.214 300.547 M227.988 304.273 C 227.717 305.113,227.324 306.016,227.115 306.281 C 226.905 306.545,226.797 307.085,226.875 307.481 C 226.956 307.899,227.402 307.141,227.941 305.667 C 228.450 304.274,228.780 303.047,228.673 302.940 C 228.567 302.834,228.258 303.433,227.988 304.273 M169.214 306.547 C 169.179 307.405,171.015 312.063,171.138 311.428 C 171.213 311.036,171.078 310.518,170.838 310.278 C 170.597 310.037,170.394 309.471,170.386 309.020 C 170.372 308.228,169.243 305.844,169.214 306.547 M226.237 309.403 C 226.073 310.061,225.665 311.178,225.331 311.885 C 224.997 312.592,224.795 313.386,224.884 313.651 C 224.972 313.916,225.452 313.015,225.950 311.650 C 226.448 310.284,226.783 308.950,226.695 308.686 C 226.607 308.422,226.401 308.745,226.237 309.403 M171.214 312.547 C 171.179 313.405,173.015 318.063,173.138 317.428 C 173.213 317.036,173.078 316.518,172.838 316.278 C 172.597 316.037,172.394 315.471,172.386 315.020 C 172.372 314.228,171.243 311.844,171.214 312.547 M223.987 316.060 C 223.731 317.017,223.345 318.016,223.128 318.281 C 222.911 318.545,222.802 319.085,222.886 319.481 C 222.973 319.892,223.434 319.032,223.960 317.474 C 224.467 315.975,224.786 314.652,224.667 314.534 C 224.549 314.416,224.243 315.102,223.987 316.060 M173.214 318.602 C 173.206 318.823,173.650 320.244,174.200 321.760 C 174.750 323.277,175.200 324.581,175.200 324.659 C 175.200 324.736,175.515 324.795,175.900 324.788 C 176.567 324.776,176.567 324.756,175.900 324.368 C 175.515 324.144,175.200 323.620,175.200 323.204 C 175.200 322.788,175.020 322.336,174.800 322.200 C 174.580 322.064,174.394 321.558,174.386 321.076 C 174.372 320.211,173.242 317.824,173.214 318.602 M221.987 322.060 C 221.731 323.017,221.337 324.025,221.112 324.300 C 220.831 324.642,220.833 324.800,221.119 324.800 C 221.582 324.800,223.007 320.873,222.667 320.534 C 222.549 320.416,222.243 321.102,221.987 322.060 " stroke="none" fill="#a4a4a4" fill-rule="evenodd"></path><path id="path2" d="M297.858 94.251 C 298.109 94.354,298.240 94.835,298.149 95.319 C 297.994 96.143,298.007 96.148,298.342 95.400 C 298.748 94.493,298.575 93.985,297.876 94.032 C 297.532 94.054,297.527 94.115,297.858 94.251 M156.056 127.200 C 156.056 127.530,156.211 128.160,156.400 128.600 C 156.617 129.104,156.744 129.178,156.744 128.800 C 156.744 128.470,156.589 127.840,156.400 127.400 C 156.183 126.896,156.056 126.822,156.056 127.200 M237.429 141.829 C 237.281 142.415,237.238 142.972,237.332 143.066 C 237.427 143.160,237.624 142.758,237.771 142.171 C 237.919 141.585,237.962 141.028,237.868 140.934 C 237.773 140.840,237.576 141.242,237.429 141.829 M232.712 157.200 C 232.576 157.750,232.350 158.650,232.210 159.200 C 232.052 159.822,232.197 159.679,232.592 158.821 C 232.942 158.062,233.168 157.162,233.094 156.821 C 233.010 156.431,232.868 156.572,232.712 157.200 M224.712 183.200 C 224.576 183.750,224.350 184.650,224.210 185.200 C 224.052 185.822,224.197 185.679,224.592 184.821 C 224.942 184.062,225.168 183.162,225.094 182.821 C 225.010 182.431,224.868 182.572,224.712 183.200 M193.256 244.000 C 193.256 244.330,193.411 244.960,193.600 245.400 C 193.817 245.904,193.944 245.978,193.944 245.600 C 193.944 245.270,193.789 244.640,193.600 244.200 C 193.383 243.696,193.256 243.622,193.256 244.000 M200.432 262.080 C 200.414 262.454,200.085 262.944,199.700 263.168 C 199.315 263.392,199.203 263.581,199.451 263.588 C 200.111 263.606,200.909 262.509,200.669 261.913 C 200.537 261.583,200.452 261.642,200.432 262.080 M237.277 277.338 C 237.015 278.064,236.809 278.914,236.819 279.228 C 236.830 279.543,237.112 279.018,237.447 278.061 C 237.782 277.105,237.988 276.255,237.905 276.171 C 237.822 276.088,237.539 276.613,237.277 277.338 M233.277 289.338 C 233.015 290.064,232.809 290.914,232.819 291.228 C 232.830 291.543,233.112 291.018,233.447 290.061 C 233.782 289.105,233.988 288.255,233.905 288.171 C 233.822 288.088,233.539 288.613,233.277 289.338 M227.277 307.338 C 227.015 308.064,226.809 308.914,226.819 309.228 C 226.830 309.543,227.112 309.018,227.447 308.061 C 227.782 307.105,227.988 306.255,227.905 306.171 C 227.822 306.088,227.539 306.613,227.277 307.338 M225.291 313.300 C 224.610 315.184,224.704 315.694,225.426 314.030 C 225.753 313.277,225.966 312.499,225.901 312.302 C 225.835 312.105,225.560 312.554,225.291 313.300 M223.291 319.300 C 222.610 321.184,222.704 321.694,223.426 320.030 C 223.753 319.277,223.966 318.499,223.901 318.302 C 223.835 318.105,223.560 318.554,223.291 319.300 M174.903 324.400 C 175.046 324.924,177.983 325.001,198.233 325.005 L 221.400 325.010 198.422 324.902 C 180.677 324.818,175.363 324.680,175.091 324.297 C 174.832 323.932,174.783 323.959,174.903 324.400 " stroke="none" fill="#747474" fill-rule="evenodd"></path><path id="path3" d="M98.136 94.222 C 98.005 94.564,98.096 95.239,98.338 95.722 C 98.750 96.543,98.773 96.521,98.689 95.400 L 98.600 94.200 121.755 94.097 C 147.088 93.984,145.626 93.834,146.405 96.619 C 146.683 97.611,147.005 98.329,147.120 98.213 C 147.369 97.965,146.419 94.816,145.879 94.100 C 145.248 93.262,98.458 93.382,98.136 94.222 M252.121 94.100 C 251.591 94.803,250.629 97.962,250.871 98.205 C 250.982 98.315,251.299 97.639,251.577 96.703 C 251.855 95.766,252.266 94.775,252.490 94.500 C 252.898 94.000,297.976 93.709,298.471 94.204 C 298.711 94.445,297.944 97.567,297.457 98.327 C 297.272 98.616,297.221 98.955,297.345 99.078 C 297.579 99.312,297.953 98.478,298.793 95.851 C 299.199 94.577,299.191 94.240,298.744 93.957 C 297.816 93.369,252.567 93.508,252.121 94.100 M147.414 99.600 C 148.147 102.016,149.144 104.556,149.171 104.075 C 149.214 103.304,147.948 99.466,147.497 99.000 C 147.247 98.741,147.217 98.953,147.414 99.600 M250.011 99.771 C 249.785 100.365,249.600 101.280,249.600 101.802 C 249.600 102.325,249.420 102.864,249.200 103.000 C 248.980 103.136,248.814 103.642,248.832 104.124 C 248.852 104.681,248.936 104.782,249.063 104.400 C 249.173 104.070,249.370 103.530,249.499 103.200 C 249.993 101.944,250.723 98.993,250.576 98.845 C 250.491 98.759,250.237 99.176,250.011 99.771 M99.632 99.800 C 99.630 100.240,99.886 101.050,100.200 101.600 C 100.930 102.878,100.934 102.604,100.212 100.600 C 99.895 99.720,99.634 99.360,99.632 99.800 M296.456 101.605 C 296.163 102.592,295.760 103.713,295.561 104.095 C 295.004 105.166,295.158 105.490,295.813 104.624 C 296.136 104.196,296.400 103.467,296.400 103.004 C 296.400 102.540,296.597 101.963,296.838 101.722 C 297.078 101.482,297.211 100.953,297.133 100.547 C 297.045 100.089,296.788 100.490,296.456 101.605 M101.632 105.800 C 101.630 106.240,101.886 107.050,102.200 107.600 C 102.930 108.878,102.934 108.604,102.212 106.600 C 101.895 105.720,101.634 105.360,101.632 105.800 M149.683 106.871 C 149.923 107.602,150.260 108.560,150.431 109.000 C 150.602 109.440,150.830 110.070,150.939 110.400 C 151.064 110.779,151.148 110.677,151.168 110.124 C 151.186 109.642,151.020 109.136,150.800 109.000 C 150.580 108.864,150.400 108.245,150.400 107.625 C 150.400 107.005,150.141 106.283,149.824 106.020 C 149.328 105.609,149.309 105.728,149.683 106.871 M248.065 106.617 C 247.809 107.178,247.608 107.944,247.618 108.319 C 247.627 108.693,247.889 108.287,248.200 107.415 C 248.845 105.604,248.759 105.094,248.065 106.617 M294.456 107.605 C 294.163 108.592,293.760 109.713,293.561 110.095 C 293.004 111.166,293.158 111.490,293.813 110.624 C 294.136 110.196,294.400 109.467,294.400 109.004 C 294.400 108.540,294.597 107.963,294.838 107.722 C 295.078 107.482,295.211 106.953,295.133 106.547 C 295.045 106.089,294.788 106.490,294.456 107.605 M247.067 109.467 C 246.920 109.613,246.811 110.108,246.825 110.567 C 246.849 111.333,246.882 111.323,247.234 110.442 C 247.626 109.463,247.544 108.989,247.067 109.467 M103.632 111.800 C 103.630 112.240,103.886 113.050,104.200 113.600 C 104.930 114.878,104.934 114.604,104.212 112.600 C 103.895 111.720,103.634 111.360,103.632 111.800 M151.220 111.600 C 151.216 111.710,151.471 112.520,151.788 113.400 C 152.105 114.280,152.366 114.640,152.368 114.200 C 152.371 113.535,151.245 110.985,151.220 111.600 M246.035 112.897 C 245.763 113.720,245.623 114.710,245.724 115.097 C 245.859 115.615,245.919 115.557,245.954 114.874 C 245.979 114.364,246.192 113.589,246.426 113.152 C 246.660 112.714,246.780 112.141,246.691 111.878 C 246.603 111.615,246.308 112.074,246.035 112.897 M292.456 113.605 C 292.163 114.592,291.760 115.713,291.561 116.095 C 291.004 117.166,291.158 117.490,291.813 116.624 C 292.136 116.196,292.400 115.467,292.400 115.004 C 292.400 114.540,292.597 113.963,292.838 113.722 C 293.078 113.482,293.211 112.953,293.133 112.547 C 293.045 112.089,292.788 112.490,292.456 113.605 M244.800 117.000 C 244.800 117.550,244.869 118.000,244.953 118.000 C 245.038 118.000,245.193 117.550,245.298 117.000 C 245.403 116.450,245.334 116.000,245.145 116.000 C 244.955 116.000,244.800 116.450,244.800 117.000 M105.632 117.800 C 105.630 118.240,105.886 119.050,106.200 119.600 C 106.930 120.878,106.934 120.604,106.212 118.600 C 105.895 117.720,105.634 117.360,105.632 117.800 M153.232 117.854 C 153.215 118.104,153.463 118.914,153.784 119.654 C 154.106 120.394,154.368 120.730,154.366 120.400 C 154.363 119.661,153.278 117.223,153.232 117.854 M290.456 119.605 C 290.163 120.592,289.760 121.713,289.561 122.095 C 289.004 123.166,289.158 123.490,289.813 122.624 C 290.136 122.196,290.400 121.467,290.400 121.004 C 290.400 120.540,290.597 119.963,290.838 119.722 C 291.078 119.482,291.211 118.953,291.133 118.547 C 291.045 118.089,290.788 118.490,290.456 119.605 M244.032 119.539 C 243.795 119.984,243.600 120.683,243.600 121.094 C 243.600 121.504,243.403 122.037,243.162 122.278 C 242.922 122.518,242.789 123.047,242.867 123.453 C 242.955 123.911,243.212 123.510,243.544 122.395 C 243.837 121.408,244.253 120.267,244.467 119.861 C 244.681 119.455,244.768 119.034,244.660 118.927 C 244.553 118.819,244.270 119.095,244.032 119.539 M154.428 121.476 C 154.518 122.515,155.144 123.396,155.172 122.524 C 155.187 122.042,155.020 121.536,154.800 121.400 C 154.580 121.264,154.413 121.298,154.428 121.476 M107.632 123.800 C 107.630 124.240,107.886 125.050,108.200 125.600 C 108.930 126.878,108.934 126.604,108.212 124.600 C 107.895 123.720,107.634 123.360,107.632 123.800 M155.232 123.854 C 155.215 124.104,155.463 124.914,155.784 125.654 C 156.106 126.394,156.368 126.730,156.366 126.400 C 156.363 125.661,155.278 123.223,155.232 123.854 M288.220 125.905 C 287.822 127.167,287.404 128.470,287.290 128.800 C 287.150 129.204,287.216 129.269,287.490 129.000 C 287.986 128.513,289.390 124.056,289.129 123.796 C 289.027 123.693,288.618 124.643,288.220 125.905 M242.224 125.243 C 241.180 128.222,240.813 129.521,240.824 130.200 C 240.830 130.640,241.270 129.658,241.801 128.017 C 242.332 126.376,242.689 124.955,242.593 124.860 C 242.497 124.764,242.331 124.936,242.224 125.243 M156.640 128.266 C 157.008 129.799,157.200 129.944,157.200 128.690 C 157.200 128.117,157.013 127.532,156.784 127.390 C 156.511 127.221,156.462 127.523,156.640 128.266 M109.632 129.800 C 109.630 130.240,109.886 131.050,110.200 131.600 C 110.930 132.878,110.934 132.604,110.212 130.600 C 109.895 129.720,109.634 129.360,109.632 129.800 M286.220 131.905 C 285.822 133.167,285.404 134.470,285.290 134.800 C 285.150 135.204,285.216 135.269,285.490 135.000 C 285.986 134.513,287.390 130.056,287.129 129.796 C 287.027 129.693,286.618 130.643,286.220 131.905 M157.213 130.676 C 157.206 130.938,157.380 131.264,157.600 131.400 C 157.820 131.536,158.000 132.066,158.000 132.578 C 158.000 133.857,159.162 136.552,159.184 135.324 C 159.193 134.842,159.020 134.336,158.800 134.200 C 158.580 134.064,158.400 133.458,158.400 132.853 C 158.400 131.807,157.239 129.679,157.213 130.676 M240.065 132.617 C 239.809 133.178,239.608 133.944,239.618 134.319 C 239.627 134.693,239.889 134.287,240.200 133.415 C 240.845 131.604,240.759 131.094,240.065 132.617 M111.632 135.800 C 111.630 136.240,111.886 137.050,112.200 137.600 C 112.930 138.878,112.934 138.604,112.212 136.600 C 111.895 135.720,111.634 135.360,111.632 135.800 M284.220 137.905 C 283.822 139.167,283.404 140.470,283.290 140.800 C 283.150 141.204,283.216 141.269,283.490 141.000 C 283.986 140.513,285.390 136.056,285.129 135.796 C 285.027 135.693,284.618 136.643,284.220 137.905 M159.213 136.905 C 159.206 137.073,159.362 137.523,159.561 137.905 C 159.760 138.287,160.163 139.408,160.456 140.395 C 160.788 141.510,161.045 141.911,161.133 141.453 C 161.211 141.047,161.078 140.518,160.838 140.278 C 160.597 140.037,160.400 139.460,160.400 138.996 C 160.400 138.230,159.242 136.191,159.213 136.905 M238.070 138.770 C 237.406 140.674,237.514 141.270,238.226 139.630 C 238.553 138.877,238.757 138.072,238.680 137.841 C 238.603 137.610,238.329 138.029,238.070 138.770 M113.632 141.800 C 113.630 142.240,113.886 143.050,114.200 143.600 C 114.930 144.878,114.934 144.604,114.212 142.600 C 113.895 141.720,113.634 141.360,113.632 141.800 M237.067 141.467 C 236.920 141.613,236.815 142.198,236.834 142.767 C 236.868 143.781,236.875 143.779,237.221 142.620 C 237.585 141.403,237.531 141.002,237.067 141.467 M282.220 143.905 C 281.822 145.167,281.404 146.470,281.290 146.800 C 281.150 147.204,281.216 147.269,281.490 147.000 C 281.986 146.513,283.390 142.056,283.129 141.796 C 283.027 141.693,282.618 142.643,282.220 143.905 M161.414 143.600 C 162.147 146.016,163.144 148.556,163.171 148.075 C 163.214 147.304,161.948 143.466,161.497 143.000 C 161.247 142.741,161.217 142.953,161.414 143.600 M236.032 145.139 C 235.795 145.584,235.600 146.399,235.600 146.950 C 235.600 147.502,235.420 148.064,235.200 148.200 C 234.980 148.336,234.807 148.842,234.816 149.324 C 234.837 150.517,236.000 147.876,236.000 146.634 C 236.000 146.153,236.213 145.547,236.473 145.287 C 236.734 145.026,236.838 144.705,236.706 144.572 C 236.573 144.440,236.270 144.695,236.032 145.139 M115.632 147.800 C 115.630 148.240,115.886 149.050,116.200 149.600 C 116.930 150.878,116.934 150.604,116.212 148.600 C 115.895 147.720,115.634 147.360,115.632 147.800 M280.220 149.905 C 279.822 151.167,279.404 152.470,279.290 152.800 C 279.150 153.204,279.216 153.269,279.490 153.000 C 279.986 152.513,281.390 148.056,281.129 147.796 C 281.027 147.693,280.618 148.643,280.220 149.905 M163.366 149.434 C 163.532 149.855,163.767 150.789,163.888 151.510 C 164.009 152.230,164.264 152.916,164.454 153.033 C 164.644 153.151,164.814 153.642,164.832 154.124 C 164.850 154.628,164.954 154.771,165.078 154.461 C 165.196 154.164,165.105 153.534,164.875 153.061 C 164.646 152.587,164.348 151.531,164.213 150.714 C 164.079 149.897,163.765 149.102,163.517 148.948 C 163.206 148.757,163.159 148.910,163.366 149.434 M234.224 151.243 C 233.214 154.126,232.815 155.492,232.836 156.000 C 232.849 156.330,233.295 155.354,233.827 153.830 C 234.359 152.307,234.710 150.977,234.607 150.873 C 234.503 150.770,234.331 150.936,234.224 151.243 M117.632 153.800 C 117.630 154.240,117.886 155.050,118.200 155.600 C 118.930 156.878,118.934 156.604,118.212 154.600 C 117.895 153.720,117.634 153.360,117.632 153.800 M278.220 155.905 C 277.822 157.167,277.404 158.470,277.290 158.800 C 277.150 159.204,277.216 159.269,277.490 159.000 C 277.986 158.513,279.390 154.056,279.129 153.796 C 279.027 153.693,278.618 154.643,278.220 155.905 M165.220 155.600 C 165.216 155.710,165.471 156.520,165.788 157.400 C 166.105 158.280,166.366 158.640,166.368 158.200 C 166.371 157.535,165.245 154.985,165.220 155.600 M232.080 158.080 C 231.816 158.344,231.618 159.109,231.641 159.780 L 231.682 161.000 231.977 159.765 C 232.139 159.086,232.402 158.321,232.560 158.065 C 232.932 157.462,232.690 157.470,232.080 158.080 M119.632 159.800 C 119.630 160.240,119.886 161.050,120.200 161.600 C 120.930 162.878,120.934 162.604,120.212 160.600 C 119.895 159.720,119.634 159.360,119.632 159.800 M276.220 161.905 C 275.822 163.167,275.404 164.470,275.290 164.800 C 275.150 165.204,275.216 165.269,275.490 165.000 C 275.986 164.513,277.390 160.056,277.129 159.796 C 277.027 159.693,276.618 160.643,276.220 161.905 M167.220 161.600 C 167.216 161.710,167.471 162.520,167.788 163.400 C 168.105 164.280,168.366 164.640,168.368 164.200 C 168.371 163.535,167.245 160.985,167.220 161.600 M230.070 164.770 C 229.406 166.674,229.514 167.270,230.226 165.630 C 230.553 164.877,230.757 164.072,230.680 163.841 C 230.603 163.610,230.329 164.029,230.070 164.770 M121.632 165.800 C 121.630 166.240,121.886 167.050,122.200 167.600 C 122.930 168.878,122.934 168.604,122.212 166.600 C 121.895 165.720,121.634 165.360,121.632 165.800 M168.428 165.476 C 168.518 166.515,169.144 167.396,169.172 166.524 C 169.187 166.042,169.020 165.536,168.800 165.400 C 168.580 165.264,168.413 165.298,168.428 165.476 M274.220 167.905 C 273.822 169.167,273.404 170.470,273.290 170.800 C 273.150 171.204,273.216 171.269,273.490 171.000 C 273.986 170.513,275.390 166.056,275.129 165.796 C 275.027 165.693,274.618 166.643,274.220 167.905 M229.067 167.467 C 228.920 167.613,228.811 168.108,228.825 168.567 C 228.849 169.333,228.882 169.323,229.234 168.442 C 229.626 167.463,229.544 166.989,229.067 167.467 M169.232 167.854 C 169.215 168.104,169.463 168.914,169.784 169.654 C 170.106 170.394,170.368 170.730,170.366 170.400 C 170.363 169.661,169.278 167.223,169.232 167.854 M228.032 171.139 C 227.795 171.584,227.600 172.399,227.600 172.950 C 227.600 173.502,227.420 174.064,227.200 174.200 C 226.980 174.336,226.807 174.842,226.816 175.324 C 226.837 176.517,228.000 173.876,228.000 172.634 C 228.000 172.153,228.213 171.547,228.473 171.287 C 228.734 171.026,228.838 170.705,228.706 170.572 C 228.573 170.440,228.270 170.695,228.032 171.139 M123.632 171.800 C 123.630 172.240,123.886 173.050,124.200 173.600 C 124.930 174.878,124.934 174.604,124.212 172.600 C 123.895 171.720,123.634 171.360,123.632 171.800 M170.428 171.476 C 170.518 172.515,171.144 173.396,171.172 172.524 C 171.187 172.042,171.020 171.536,170.800 171.400 C 170.580 171.264,170.413 171.298,170.428 171.476 M272.220 173.905 C 271.822 175.167,271.404 176.470,271.290 176.800 C 271.150 177.204,271.216 177.269,271.490 177.000 C 271.986 176.513,273.390 172.056,273.129 171.796 C 273.027 171.693,272.618 172.643,272.220 173.905 M171.213 174.620 C 171.206 174.851,171.365 175.211,171.566 175.420 C 171.768 175.629,172.013 176.250,172.112 176.800 L 172.291 177.800 172.346 176.776 C 172.375 176.214,172.136 175.404,171.813 174.976 C 171.490 174.549,171.220 174.389,171.213 174.620 M226.224 177.243 C 225.214 180.126,224.815 181.492,224.836 182.000 C 224.849 182.330,225.295 181.354,225.827 179.830 C 226.359 178.307,226.710 176.977,226.607 176.873 C 226.503 176.770,226.331 176.936,226.224 177.243 M125.632 177.800 C 125.630 178.240,125.886 179.050,126.200 179.600 C 126.930 180.878,126.934 180.604,126.212 178.600 C 125.895 177.720,125.634 177.360,125.632 177.800 M270.220 179.905 C 269.822 181.167,269.404 182.470,269.290 182.800 C 269.150 183.204,269.216 183.269,269.490 183.000 C 269.986 182.513,271.390 178.056,271.129 177.796 C 271.027 177.693,270.618 178.643,270.220 179.905 M172.702 179.000 C 172.807 179.550,172.962 180.000,173.047 180.000 C 173.131 180.000,173.200 179.550,173.200 179.000 C 173.200 178.450,173.045 178.000,172.855 178.000 C 172.666 178.000,172.597 178.450,172.702 179.000 M173.213 180.905 C 173.206 181.073,173.362 181.523,173.561 181.905 C 173.760 182.287,174.163 183.408,174.456 184.395 C 174.788 185.510,175.045 185.911,175.133 185.453 C 175.211 185.047,175.078 184.518,174.838 184.278 C 174.597 184.037,174.400 183.460,174.400 182.996 C 174.400 182.230,173.242 180.191,173.213 180.905 M127.632 183.800 C 127.630 184.240,127.886 185.050,128.200 185.600 C 128.930 186.878,128.934 186.604,128.212 184.600 C 127.895 183.720,127.634 183.360,127.632 183.800 M224.080 184.080 C 223.816 184.344,223.618 185.109,223.641 185.780 L 223.682 187.000 223.977 185.765 C 224.139 185.086,224.402 184.321,224.560 184.065 C 224.932 183.462,224.690 183.470,224.080 184.080 M268.220 185.905 C 267.822 187.167,267.404 188.470,267.290 188.800 C 267.150 189.204,267.216 189.269,267.490 189.000 C 267.986 188.513,269.390 184.056,269.129 183.796 C 269.027 183.693,268.618 184.643,268.220 185.905 M175.414 187.600 C 176.147 190.016,177.144 192.556,177.171 192.075 C 177.214 191.304,175.948 187.466,175.497 187.000 C 175.247 186.741,175.217 186.953,175.414 187.600 M129.632 189.800 C 129.630 190.240,129.886 191.050,130.200 191.600 C 130.930 192.878,130.934 192.604,130.212 190.600 C 129.895 189.720,129.634 189.360,129.632 189.800 M222.070 190.770 C 221.406 192.674,221.514 193.270,222.226 191.630 C 222.553 190.877,222.757 190.072,222.680 189.841 C 222.603 189.610,222.329 190.029,222.070 190.770 M266.220 191.905 C 265.822 193.167,265.404 194.470,265.290 194.800 C 265.150 195.204,265.216 195.269,265.490 195.000 C 265.986 194.513,267.390 190.056,267.129 189.796 C 267.027 189.693,266.618 190.643,266.220 191.905 M177.366 193.434 C 177.532 193.855,177.767 194.789,177.888 195.510 C 178.009 196.230,178.264 196.916,178.454 197.033 C 178.644 197.151,178.814 197.642,178.832 198.124 C 178.850 198.628,178.954 198.771,179.078 198.461 C 179.196 198.164,179.105 197.534,178.875 197.061 C 178.646 196.587,178.348 195.531,178.213 194.714 C 178.079 193.897,177.765 193.102,177.517 192.948 C 177.206 192.757,177.159 192.910,177.366 193.434 M221.067 193.467 C 220.920 193.613,220.811 194.108,220.825 194.567 C 220.849 195.333,220.882 195.323,221.234 194.442 C 221.626 193.463,221.544 192.989,221.067 193.467 M131.632 195.800 C 131.630 196.240,131.886 197.050,132.200 197.600 C 132.930 198.878,132.934 198.604,132.212 196.600 C 131.895 195.720,131.634 195.360,131.632 195.800 M264.220 197.905 C 263.822 199.167,263.404 200.470,263.290 200.800 C 263.150 201.204,263.216 201.269,263.490 201.000 C 263.986 200.513,265.390 196.056,265.129 195.796 C 265.027 195.693,264.618 196.643,264.220 197.905 M220.032 197.139 C 219.795 197.584,219.600 198.399,219.600 198.950 C 219.600 199.502,219.420 200.064,219.200 200.200 C 218.980 200.336,218.807 200.842,218.816 201.324 C 218.837 202.517,220.000 199.876,220.000 198.634 C 220.000 198.153,220.213 197.547,220.473 197.287 C 220.734 197.026,220.838 196.705,220.706 196.572 C 220.573 196.440,220.270 196.695,220.032 197.139 M179.683 200.871 C 179.923 201.602,180.260 202.560,180.431 203.000 C 180.602 203.440,180.830 204.070,180.939 204.400 C 181.064 204.779,181.148 204.677,181.168 204.124 C 181.186 203.642,181.020 203.136,180.800 203.000 C 180.580 202.864,180.400 202.245,180.400 201.625 C 180.400 201.005,180.141 200.283,179.824 200.020 C 179.328 199.609,179.309 199.728,179.683 200.871 M133.632 201.800 C 133.630 202.240,133.886 203.050,134.200 203.600 C 134.930 204.878,134.934 204.604,134.212 202.600 C 133.895 201.720,133.634 201.360,133.632 201.800 M262.220 203.905 C 261.822 205.167,261.404 206.470,261.290 206.800 C 261.150 207.204,261.216 207.269,261.490 207.000 C 261.986 206.513,263.390 202.056,263.129 201.796 C 263.027 201.693,262.618 202.643,262.220 203.905 M218.057 203.648 C 217.308 205.557,216.676 208.009,216.880 208.213 C 216.995 208.329,217.308 207.563,217.575 206.511 C 217.842 205.460,218.239 204.267,218.458 203.861 C 218.677 203.455,218.760 203.026,218.643 202.909 C 218.526 202.792,218.262 203.125,218.057 203.648 M181.220 205.600 C 181.216 205.710,181.471 206.520,181.788 207.400 C 182.105 208.280,182.366 208.640,182.368 208.200 C 182.371 207.535,181.245 204.985,181.220 205.600 M135.632 207.800 C 135.630 208.240,135.886 209.050,136.200 209.600 C 136.930 210.878,136.934 210.604,136.212 208.600 C 135.895 207.720,135.634 207.360,135.632 207.800 M260.220 209.905 C 259.822 211.167,259.404 212.470,259.290 212.800 C 259.150 213.204,259.216 213.269,259.490 213.000 C 259.986 212.513,261.390 208.056,261.129 207.796 C 261.027 207.693,260.618 208.643,260.220 209.905 M216.080 210.080 C 215.816 210.344,215.618 211.109,215.641 211.780 L 215.682 213.000 215.977 211.765 C 216.139 211.086,216.402 210.321,216.560 210.065 C 216.932 209.462,216.690 209.470,216.080 210.080 M183.232 211.854 C 183.215 212.104,183.463 212.914,183.784 213.654 C 184.106 214.394,184.368 214.730,184.366 214.400 C 184.363 213.661,183.278 211.223,183.232 211.854 M137.632 213.800 C 137.630 214.240,137.886 215.050,138.200 215.600 C 138.930 216.878,138.934 216.604,138.212 214.600 C 137.895 213.720,137.634 213.360,137.632 213.800 M258.220 215.905 C 257.822 217.167,257.404 218.470,257.290 218.800 C 257.150 219.204,257.216 219.269,257.490 219.000 C 257.986 218.513,259.390 214.056,259.129 213.796 C 259.027 213.693,258.618 214.643,258.220 215.905 M184.428 215.476 C 184.518 216.515,185.144 217.396,185.172 216.524 C 185.187 216.042,185.020 215.536,184.800 215.400 C 184.580 215.264,184.413 215.298,184.428 215.476 M214.065 216.617 C 213.809 217.178,213.608 217.944,213.618 218.319 C 213.627 218.693,213.889 218.287,214.200 217.415 C 214.845 215.604,214.759 215.094,214.065 216.617 M185.426 218.400 C 186.109 221.309,186.317 221.855,186.341 220.800 C 186.354 220.250,186.100 219.260,185.778 218.600 C 185.279 217.579,185.226 217.549,185.426 218.400 M139.632 219.800 C 139.630 220.240,139.886 221.050,140.200 221.600 C 140.930 222.878,140.934 222.604,140.212 220.600 C 139.895 219.720,139.634 219.360,139.632 219.800 M213.067 219.467 C 212.920 219.613,212.811 220.108,212.825 220.567 C 212.849 221.333,212.882 221.323,213.234 220.442 C 213.626 219.463,213.544 218.989,213.067 219.467 M256.220 221.905 C 255.822 223.167,255.404 224.470,255.290 224.800 C 255.150 225.204,255.216 225.269,255.490 225.000 C 255.986 224.513,257.390 220.056,257.129 219.796 C 257.027 219.693,256.618 220.643,256.220 221.905 M212.035 222.897 C 211.763 223.720,211.623 224.710,211.724 225.097 C 211.859 225.615,211.919 225.557,211.954 224.874 C 211.979 224.364,212.192 223.589,212.426 223.152 C 212.660 222.714,212.780 222.141,212.691 221.878 C 212.603 221.615,212.308 222.074,212.035 222.897 M186.702 223.000 C 186.807 223.550,186.962 224.000,187.047 224.000 C 187.131 224.000,187.200 223.550,187.200 223.000 C 187.200 222.450,187.045 222.000,186.855 222.000 C 186.666 222.000,186.597 222.450,186.702 223.000 M187.520 225.280 C 187.784 225.544,188.000 226.153,188.000 226.634 C 188.000 227.876,189.163 230.517,189.184 229.324 C 189.193 228.842,189.020 228.336,188.800 228.200 C 188.580 228.064,188.400 227.528,188.400 227.009 C 188.400 225.737,188.009 224.800,187.477 224.800 C 187.185 224.800,187.199 224.959,187.520 225.280 M141.632 225.800 C 141.630 226.240,141.886 227.050,142.200 227.600 C 142.930 228.878,142.934 228.604,142.212 226.600 C 141.895 225.720,141.634 225.360,141.632 225.800 M254.220 227.905 C 253.822 229.167,253.404 230.470,253.290 230.800 C 253.150 231.204,253.216 231.269,253.490 231.000 C 253.986 230.513,255.390 226.056,255.129 225.796 C 255.027 225.693,254.618 226.643,254.220 227.905 M210.800 227.000 C 210.800 227.550,210.869 228.000,210.953 228.000 C 211.038 228.000,211.193 227.550,211.298 227.000 C 211.403 226.450,211.334 226.000,211.145 226.000 C 210.955 226.000,210.800 226.450,210.800 227.000 M210.057 229.648 C 209.308 231.557,208.676 234.009,208.880 234.213 C 208.995 234.329,209.308 233.563,209.575 232.511 C 209.842 231.460,210.239 230.267,210.458 229.861 C 210.677 229.455,210.760 229.026,210.643 228.909 C 210.526 228.792,210.262 229.125,210.057 229.648 M189.200 230.925 C 189.200 231.082,189.361 231.523,189.558 231.905 C 189.755 232.287,190.203 233.500,190.553 234.600 C 191.211 236.666,191.157 235.775,190.459 233.051 C 190.110 231.691,189.200 230.153,189.200 230.925 M143.632 231.800 C 143.630 232.240,143.886 233.050,144.200 233.600 C 144.930 234.878,144.934 234.604,144.212 232.600 C 143.895 231.720,143.634 231.360,143.632 231.800 M252.220 233.905 C 251.822 235.167,251.404 236.470,251.290 236.800 C 251.150 237.204,251.216 237.269,251.490 237.000 C 251.986 236.513,253.390 232.056,253.129 231.796 C 253.027 231.693,252.618 232.643,252.220 233.905 M208.011 235.771 C 207.785 236.365,207.600 237.280,207.600 237.802 C 207.600 238.325,207.420 238.864,207.200 239.000 C 206.980 239.136,206.814 239.642,206.832 240.124 C 206.852 240.681,206.936 240.782,207.063 240.400 C 207.173 240.070,207.370 239.530,207.499 239.200 C 207.993 237.944,208.723 234.993,208.576 234.845 C 208.491 234.759,208.237 235.176,208.011 235.771 M191.414 237.600 C 192.147 240.016,193.144 242.556,193.171 242.075 C 193.214 241.304,191.948 237.466,191.497 237.000 C 191.247 236.741,191.217 236.953,191.414 237.600 M145.632 237.800 C 145.630 238.240,145.886 239.050,146.200 239.600 C 146.930 240.878,146.934 240.604,146.212 238.600 C 145.895 237.720,145.634 237.360,145.632 237.800 M250.150 240.025 C 249.693 241.331,249.518 242.234,249.763 242.031 C 250.240 241.635,251.403 238.070,251.141 237.807 C 251.054 237.720,250.608 238.718,250.150 240.025 M206.065 242.617 C 205.809 243.178,205.608 243.944,205.618 244.319 C 205.627 244.693,205.889 244.287,206.200 243.415 C 206.845 241.604,206.759 241.094,206.065 242.617 M193.366 243.434 C 193.532 243.855,193.767 244.789,193.888 245.510 C 194.009 246.230,194.264 246.916,194.454 247.033 C 194.644 247.151,194.814 247.642,194.832 248.124 C 194.850 248.628,194.954 248.771,195.078 248.461 C 195.196 248.164,195.105 247.534,194.875 247.061 C 194.646 246.587,194.348 245.531,194.213 244.714 C 194.079 243.897,193.765 243.102,193.517 242.948 C 193.206 242.757,193.159 242.910,193.366 243.434 M147.632 243.800 C 147.630 244.240,147.886 245.050,148.200 245.600 C 148.930 246.878,148.934 246.604,148.212 244.600 C 147.895 243.720,147.634 243.360,147.632 243.800 M248.568 244.697 C 247.401 247.695,247.223 248.479,247.824 247.980 C 248.141 247.717,248.400 247.020,248.400 246.431 C 248.400 245.842,248.600 245.160,248.845 244.915 C 249.090 244.670,249.224 244.273,249.144 244.032 C 249.064 243.791,248.805 244.090,248.568 244.697 M205.067 245.467 C 204.920 245.613,204.811 246.108,204.825 246.567 C 204.849 247.333,204.882 247.323,205.234 246.442 C 205.626 245.463,205.544 244.989,205.067 245.467 M204.035 248.897 C 203.763 249.720,203.623 250.710,203.724 251.097 C 203.859 251.615,203.919 251.557,203.954 250.874 C 203.979 250.364,204.192 249.589,204.426 249.152 C 204.660 248.714,204.780 248.141,204.691 247.878 C 204.603 247.615,204.308 248.074,204.035 248.897 M149.632 249.800 C 149.630 250.240,149.886 251.050,150.200 251.600 C 150.930 252.878,150.934 252.604,150.212 250.600 C 149.895 249.720,149.634 249.360,149.632 249.800 M195.220 249.600 C 195.216 249.710,195.471 250.520,195.788 251.400 C 196.105 252.280,196.366 252.640,196.368 252.200 C 196.371 251.535,195.245 248.985,195.220 249.600 M246.150 252.025 C 245.693 253.331,245.518 254.234,245.763 254.031 C 246.240 253.635,247.403 250.070,247.141 249.807 C 247.054 249.720,246.608 250.718,246.150 252.025 M202.800 253.000 C 202.800 253.550,202.869 254.000,202.953 254.000 C 203.038 254.000,203.193 253.550,203.298 253.000 C 203.403 252.450,203.334 252.000,203.145 252.000 C 202.955 252.000,202.800 252.450,202.800 253.000 M202.057 255.648 C 201.308 257.557,200.676 260.009,200.880 260.213 C 200.995 260.329,201.308 259.563,201.575 258.511 C 201.842 257.460,202.239 256.267,202.458 255.861 C 202.677 255.455,202.760 255.026,202.643 254.909 C 202.526 254.792,202.262 255.125,202.057 255.648 M151.632 255.800 C 151.630 256.240,151.886 257.050,152.200 257.600 C 152.930 258.878,152.934 258.604,152.212 256.600 C 151.895 255.720,151.634 255.360,151.632 255.800 M197.232 255.854 C 197.215 256.104,197.463 256.914,197.784 257.654 C 198.106 258.394,198.368 258.730,198.366 258.400 C 198.363 257.661,197.278 255.223,197.232 255.854 M244.150 258.025 C 243.693 259.331,243.518 260.234,243.763 260.031 C 244.240 259.635,245.403 256.070,245.141 255.807 C 245.054 255.720,244.608 256.718,244.150 258.025 M198.428 259.476 C 198.518 260.515,199.144 261.396,199.172 260.524 C 199.187 260.042,199.020 259.536,198.800 259.400 C 198.580 259.264,198.413 259.298,198.428 259.476 M200.137 261.517 C 200.011 262.003,199.748 262.400,199.553 262.400 C 199.359 262.400,199.200 262.580,199.200 262.800 C 199.200 263.020,199.384 263.200,199.610 263.200 C 200.087 263.200,200.931 261.198,200.595 260.862 C 200.470 260.737,200.264 261.032,200.137 261.517 M153.632 261.800 C 153.630 262.240,153.886 263.050,154.200 263.600 C 154.930 264.878,154.934 264.604,154.212 262.600 C 153.895 261.720,153.634 261.360,153.632 261.800 M242.568 262.697 C 241.401 265.695,241.223 266.479,241.824 265.980 C 242.141 265.717,242.400 265.020,242.400 264.431 C 242.400 263.842,242.600 263.160,242.845 262.915 C 243.090 262.670,243.224 262.273,243.144 262.032 C 243.064 261.791,242.805 262.090,242.568 262.697 M155.632 267.800 C 155.630 268.240,155.886 269.050,156.200 269.600 C 156.930 270.878,156.934 270.604,156.212 268.600 C 155.895 267.720,155.634 267.360,155.632 267.800 M240.150 270.025 C 239.693 271.331,239.518 272.234,239.763 272.031 C 240.240 271.635,241.403 268.070,241.141 267.807 C 241.054 267.720,240.608 268.718,240.150 270.025 M157.632 273.800 C 157.630 274.240,157.886 275.050,158.200 275.600 C 158.930 276.878,158.934 276.604,158.212 274.600 C 157.895 273.720,157.634 273.360,157.632 273.800 M238.568 274.697 C 237.401 277.695,237.223 278.479,237.824 277.980 C 238.141 277.717,238.400 277.020,238.400 276.431 C 238.400 275.842,238.600 275.160,238.845 274.915 C 239.090 274.670,239.224 274.273,239.144 274.032 C 239.064 273.791,238.805 274.090,238.568 274.697 M159.632 279.800 C 159.630 280.240,159.886 281.050,160.200 281.600 C 160.930 282.878,160.934 282.604,160.212 280.600 C 159.895 279.720,159.634 279.360,159.632 279.800 M236.568 280.697 C 235.401 283.695,235.223 284.479,235.824 283.980 C 236.141 283.717,236.400 283.020,236.400 282.431 C 236.400 281.842,236.600 281.160,236.845 280.915 C 237.090 280.670,237.224 280.273,237.144 280.032 C 237.064 279.791,236.805 280.090,236.568 280.697 M161.632 285.800 C 161.630 286.240,161.886 287.050,162.200 287.600 C 162.930 288.878,162.934 288.604,162.212 286.600 C 161.895 285.720,161.634 285.360,161.632 285.800 M234.568 286.697 C 233.401 289.695,233.223 290.479,233.824 289.980 C 234.141 289.717,234.400 289.020,234.400 288.431 C 234.400 287.842,234.600 287.160,234.845 286.915 C 235.090 286.670,235.224 286.273,235.144 286.032 C 235.064 285.791,234.805 286.090,234.568 286.697 M163.632 291.800 C 163.630 292.240,163.886 293.050,164.200 293.600 C 164.930 294.878,164.934 294.604,164.212 292.600 C 163.895 291.720,163.634 291.360,163.632 291.800 M232.568 292.697 C 231.401 295.695,231.223 296.479,231.824 295.980 C 232.141 295.717,232.400 295.020,232.400 294.431 C 232.400 293.842,232.600 293.160,232.845 292.915 C 233.090 292.670,233.224 292.273,233.144 292.032 C 233.064 291.791,232.805 292.090,232.568 292.697 M165.632 297.800 C 165.630 298.240,165.886 299.050,166.200 299.600 C 166.930 300.878,166.934 300.604,166.212 298.600 C 165.895 297.720,165.634 297.360,165.632 297.800 M230.568 298.697 C 229.401 301.695,229.223 302.479,229.824 301.980 C 230.141 301.717,230.400 301.020,230.400 300.431 C 230.400 299.842,230.600 299.160,230.845 298.915 C 231.090 298.670,231.224 298.273,231.144 298.032 C 231.064 297.791,230.805 298.090,230.568 298.697 M167.632 303.800 C 167.630 304.240,167.886 305.050,168.200 305.600 C 168.930 306.878,168.934 306.604,168.212 304.600 C 167.895 303.720,167.634 303.360,167.632 303.800 M228.568 304.697 C 227.401 307.695,227.223 308.479,227.824 307.980 C 228.141 307.717,228.400 307.020,228.400 306.431 C 228.400 305.842,228.600 305.160,228.845 304.915 C 229.090 304.670,229.224 304.273,229.144 304.032 C 229.064 303.791,228.805 304.090,228.568 304.697 M169.632 309.800 C 169.630 310.240,169.886 311.050,170.200 311.600 C 170.930 312.878,170.934 312.604,170.212 310.600 C 169.895 309.720,169.634 309.360,169.632 309.800 M226.568 310.697 C 225.401 313.695,225.223 314.479,225.824 313.980 C 226.141 313.717,226.400 313.020,226.400 312.431 C 226.400 311.842,226.600 311.160,226.845 310.915 C 227.090 310.670,227.224 310.273,227.144 310.032 C 227.064 309.791,226.805 310.090,226.568 310.697 M171.632 315.800 C 171.630 316.240,171.886 317.050,172.200 317.600 C 172.930 318.878,172.934 318.604,172.212 316.600 C 171.895 315.720,171.634 315.360,171.632 315.800 M224.846 315.705 C 224.821 316.093,224.644 316.723,224.454 317.105 C 223.582 318.854,223.226 320.476,223.824 319.980 C 224.141 319.717,224.400 319.020,224.400 318.431 C 224.400 317.842,224.597 317.163,224.838 316.922 C 225.078 316.682,225.189 316.151,225.084 315.742 C 224.912 315.074,224.888 315.070,224.846 315.705 M173.632 321.800 C 173.630 322.240,173.886 323.050,174.200 323.600 C 174.930 324.878,174.934 324.604,174.212 322.600 C 173.895 321.720,173.634 321.360,173.632 321.800 M222.832 321.876 C 222.814 322.358,222.620 322.864,222.400 323.000 C 222.180 323.136,222.000 323.582,222.000 323.990 C 222.000 324.399,221.775 324.824,221.500 324.935 C 221.108 325.093,221.111 325.144,221.513 325.168 C 221.794 325.186,222.126 324.885,222.249 324.500 C 222.372 324.115,222.657 323.413,222.883 322.939 C 223.108 322.466,223.196 321.836,223.078 321.539 C 222.954 321.229,222.850 321.372,222.832 321.876 " stroke="none" fill="#444444" fill-rule="evenodd"></path><path id="path4" d="M0.000 200.000 L 0.000 400.000 200.000 400.000 L 400.000 400.000 400.000 200.000 L 400.000 0.000 200.000 0.000 L 0.000 0.000 0.000 200.000 M145.879 94.100 C 146.086 94.375,146.489 95.410,146.774 96.400 C 147.058 97.390,147.446 98.560,147.635 99.000 C 148.452 100.902,149.189 103.479,149.194 104.451 C 149.197 105.029,149.470 105.726,149.800 106.000 C 150.130 106.274,150.400 107.005,150.400 107.625 C 150.400 108.245,150.560 108.852,150.756 108.973 C 150.951 109.094,151.199 109.779,151.306 110.496 C 151.412 111.213,151.729 112.430,152.010 113.200 C 152.933 115.734,153.084 116.178,153.779 118.400 C 154.158 119.610,154.612 120.960,154.787 121.400 C 154.963 121.840,155.435 123.280,155.836 124.600 C 156.236 125.920,156.707 127.171,156.882 127.380 C 157.057 127.589,157.206 128.309,157.213 128.980 C 157.220 129.651,157.490 130.549,157.813 130.976 C 158.136 131.404,158.400 132.248,158.400 132.853 C 158.400 133.458,158.580 134.064,158.800 134.200 C 159.020 134.336,159.206 134.932,159.213 135.524 C 159.220 136.116,159.490 136.949,159.813 137.376 C 160.136 137.804,160.400 138.558,160.400 139.053 C 160.400 139.548,160.580 140.064,160.800 140.200 C 161.020 140.336,161.200 140.941,161.200 141.544 C 161.200 142.147,161.357 142.811,161.549 143.020 C 161.740 143.229,162.211 144.480,162.595 145.800 C 162.979 147.120,163.542 148.767,163.846 149.460 C 164.151 150.154,164.400 151.178,164.400 151.737 C 164.400 152.296,164.560 152.852,164.756 152.973 C 164.951 153.094,165.199 153.779,165.306 154.496 C 165.479 155.661,165.844 156.839,166.826 159.400 C 166.995 159.840,167.223 160.560,167.332 161.000 C 167.514 161.729,168.044 163.305,168.813 165.400 C 168.975 165.840,169.435 167.280,169.836 168.600 C 170.236 169.920,170.707 171.171,170.882 171.380 C 171.057 171.589,171.206 172.309,171.213 172.980 C 171.220 173.651,171.490 174.549,171.813 174.976 C 172.136 175.404,172.400 176.259,172.400 176.876 C 172.400 177.494,172.580 178.000,172.800 178.000 C 173.020 178.000,173.206 178.585,173.213 179.300 C 173.220 180.015,173.490 180.949,173.813 181.376 C 174.136 181.804,174.400 182.558,174.400 183.053 C 174.400 183.548,174.580 184.064,174.800 184.200 C 175.020 184.336,175.200 184.941,175.200 185.544 C 175.200 186.147,175.357 186.811,175.549 187.020 C 175.740 187.229,176.211 188.480,176.595 189.800 C 176.979 191.120,177.542 192.767,177.846 193.460 C 178.151 194.154,178.400 195.178,178.400 195.737 C 178.400 196.296,178.580 196.864,178.800 197.000 C 179.020 197.136,179.200 197.755,179.200 198.375 C 179.200 198.995,179.470 199.726,179.800 200.000 C 180.130 200.274,180.400 201.005,180.400 201.625 C 180.400 202.245,180.560 202.852,180.756 202.973 C 180.951 203.094,181.199 203.779,181.306 204.496 C 181.412 205.213,181.729 206.430,182.010 207.200 C 182.933 209.734,183.084 210.178,183.779 212.400 C 184.158 213.610,184.608 214.960,184.779 215.400 C 185.637 217.604,186.404 220.297,186.402 221.100 C 186.401 221.595,186.580 222.000,186.800 222.000 C 187.020 222.000,187.200 222.553,187.200 223.229 C 187.200 223.904,187.470 224.727,187.800 225.057 C 188.130 225.387,188.400 226.174,188.400 226.805 C 188.400 227.436,188.580 228.064,188.800 228.200 C 189.020 228.336,189.200 228.872,189.200 229.391 C 189.200 229.910,189.456 230.845,189.770 231.468 C 190.083 232.090,190.551 233.410,190.809 234.400 C 191.067 235.390,191.411 236.470,191.575 236.800 C 191.738 237.130,192.191 238.480,192.582 239.800 C 192.973 241.120,193.542 242.767,193.846 243.460 C 194.151 244.154,194.400 245.178,194.400 245.737 C 194.400 246.296,194.560 246.852,194.756 246.973 C 194.951 247.094,195.199 247.779,195.306 248.496 C 195.412 249.213,195.729 250.430,196.010 251.200 C 196.290 251.970,196.652 252.960,196.813 253.400 C 196.975 253.840,197.435 255.280,197.836 256.600 C 198.236 257.920,198.707 259.171,198.882 259.380 C 199.057 259.589,199.200 260.354,199.200 261.080 C 199.200 263.577,200.112 262.340,201.175 258.400 C 201.442 257.410,201.917 256.090,202.230 255.468 C 202.544 254.845,202.800 253.810,202.800 253.168 C 202.800 252.525,202.980 252.000,203.200 252.000 C 203.420 252.000,203.599 251.595,203.598 251.100 C 203.596 250.131,204.237 248.012,205.990 243.200 C 206.271 242.430,206.588 241.213,206.694 240.496 C 206.801 239.779,207.049 239.094,207.244 238.973 C 207.440 238.852,207.600 238.296,207.600 237.737 C 207.600 237.178,207.847 236.154,208.148 235.460 C 208.450 234.767,208.913 233.390,209.178 232.400 C 209.443 231.410,209.917 230.090,210.230 229.468 C 210.544 228.845,210.800 227.810,210.800 227.168 C 210.800 226.525,210.980 226.000,211.200 226.000 C 211.420 226.000,211.599 225.595,211.598 225.100 C 211.597 224.605,211.892 223.300,212.253 222.200 C 212.914 220.185,213.063 219.755,213.986 217.200 C 214.264 216.430,214.582 215.303,214.692 214.695 C 214.802 214.087,215.051 213.492,215.246 213.371 C 215.441 213.251,215.600 212.555,215.600 211.825 C 215.600 211.095,215.870 210.274,216.200 210.000 C 216.530 209.726,216.800 209.042,216.800 208.479 C 216.800 207.300,217.431 205.103,218.240 203.468 C 218.548 202.845,218.800 201.910,218.800 201.391 C 218.800 200.872,218.980 200.336,219.200 200.200 C 219.420 200.064,219.600 199.458,219.600 198.853 C 219.600 198.248,219.864 197.404,220.187 196.976 C 220.510 196.549,220.780 195.651,220.787 194.980 C 220.794 194.309,220.943 193.589,221.118 193.380 C 221.293 193.171,221.761 191.920,222.158 190.600 C 222.555 189.280,223.042 187.887,223.240 187.505 C 223.438 187.123,223.600 186.290,223.600 185.654 C 223.600 185.018,223.870 184.274,224.200 184.000 C 224.530 183.726,224.800 183.063,224.800 182.526 C 224.800 181.403,225.950 177.584,226.458 177.020 C 226.646 176.811,226.800 176.147,226.800 175.544 C 226.800 174.941,226.980 174.336,227.200 174.200 C 227.420 174.064,227.600 173.458,227.600 172.853 C 227.600 172.248,227.864 171.404,228.187 170.976 C 228.510 170.549,228.780 169.651,228.787 168.980 C 228.794 168.309,228.943 167.589,229.118 167.380 C 229.293 167.171,229.761 165.920,230.158 164.600 C 230.555 163.280,231.042 161.887,231.240 161.505 C 231.438 161.123,231.600 160.290,231.600 159.654 C 231.600 159.018,231.870 158.274,232.200 158.000 C 232.530 157.726,232.800 157.063,232.800 156.526 C 232.800 155.403,233.950 151.584,234.458 151.020 C 234.646 150.811,234.800 150.147,234.800 149.544 C 234.800 148.941,234.980 148.336,235.200 148.200 C 235.420 148.064,235.600 147.458,235.600 146.853 C 235.600 146.248,235.864 145.404,236.187 144.976 C 236.510 144.549,236.780 143.651,236.787 142.980 C 236.794 142.309,236.943 141.589,237.118 141.380 C 237.293 141.171,237.764 139.920,238.164 138.600 C 238.565 137.280,239.025 135.840,239.187 135.400 C 240.232 132.552,240.521 131.626,240.805 130.200 C 241.279 127.821,242.026 125.450,242.437 125.020 C 242.637 124.811,242.800 124.147,242.800 123.544 C 242.800 122.941,242.980 122.336,243.200 122.200 C 243.420 122.064,243.600 121.548,243.600 121.053 C 243.600 120.558,243.864 119.804,244.187 119.376 C 244.510 118.949,244.780 118.015,244.787 117.300 C 244.794 116.585,244.980 116.000,245.200 116.000 C 245.420 116.000,245.599 115.595,245.598 115.100 C 245.596 114.131,246.237 112.012,247.990 107.200 C 248.271 106.430,248.588 105.213,248.694 104.496 C 248.801 103.779,249.049 103.094,249.244 102.973 C 249.440 102.852,249.600 102.296,249.600 101.737 C 249.600 101.178,249.847 100.154,250.148 99.460 C 250.450 98.767,250.932 97.390,251.220 96.400 C 251.508 95.410,251.914 94.375,252.121 94.100 C 252.567 93.508,297.816 93.369,298.744 93.957 C 299.330 94.328,298.938 96.149,297.760 98.532 C 297.452 99.155,297.200 100.090,297.200 100.609 C 297.200 101.128,297.020 101.664,296.800 101.800 C 296.580 101.936,296.400 102.452,296.400 102.947 C 296.400 103.442,296.136 104.196,295.813 104.624 C 295.490 105.051,295.220 105.884,295.213 106.476 C 295.206 107.068,295.020 107.664,294.800 107.800 C 294.580 107.936,294.400 108.452,294.400 108.947 C 294.400 109.442,294.136 110.196,293.813 110.624 C 293.490 111.051,293.220 111.884,293.213 112.476 C 293.206 113.068,293.020 113.664,292.800 113.800 C 292.580 113.936,292.400 114.452,292.400 114.947 C 292.400 115.442,292.136 116.196,291.813 116.624 C 291.490 117.051,291.220 117.884,291.213 118.476 C 291.206 119.068,291.020 119.664,290.800 119.800 C 290.580 119.936,290.400 120.414,290.400 120.862 C 290.400 121.310,290.146 122.154,289.835 122.738 C 289.525 123.322,288.956 124.880,288.571 126.200 C 288.186 127.520,287.735 128.870,287.569 129.200 C 287.403 129.530,286.953 130.880,286.569 132.200 C 286.185 133.520,285.735 134.870,285.569 135.200 C 285.403 135.530,284.953 136.880,284.569 138.200 C 284.185 139.520,283.735 140.870,283.569 141.200 C 283.403 141.530,282.953 142.880,282.569 144.200 C 282.185 145.520,281.735 146.870,281.569 147.200 C 281.403 147.530,280.953 148.880,280.569 150.200 C 280.185 151.520,279.735 152.870,279.569 153.200 C 279.403 153.530,278.953 154.880,278.569 156.200 C 278.185 157.520,277.735 158.870,277.569 159.200 C 277.403 159.530,276.953 160.880,276.569 162.200 C 276.185 163.520,275.735 164.870,275.569 165.200 C 275.403 165.530,274.953 166.880,274.569 168.200 C 274.185 169.520,273.735 170.870,273.569 171.200 C 273.403 171.530,272.953 172.880,272.569 174.200 C 272.185 175.520,271.735 176.870,271.569 177.200 C 271.403 177.530,270.953 178.880,270.569 180.200 C 270.185 181.520,269.735 182.870,269.569 183.200 C 269.403 183.530,268.953 184.880,268.569 186.200 C 268.185 187.520,267.735 188.870,267.569 189.200 C 267.403 189.530,266.953 190.880,266.569 192.200 C 266.185 193.520,265.735 194.870,265.569 195.200 C 265.403 195.530,264.953 196.880,264.569 198.200 C 264.185 199.520,263.735 200.870,263.569 201.200 C 263.403 201.530,262.953 202.880,262.569 204.200 C 262.185 205.520,261.735 206.870,261.569 207.200 C 261.403 207.530,260.953 208.880,260.569 210.200 C 260.185 211.520,259.735 212.870,259.569 213.200 C 259.403 213.530,258.953 214.880,258.569 216.200 C 258.185 217.520,257.735 218.870,257.569 219.200 C 257.403 219.530,256.953 220.880,256.569 222.200 C 256.185 223.520,255.735 224.870,255.569 225.200 C 255.403 225.530,254.953 226.880,254.569 228.200 C 254.185 229.520,253.735 230.870,253.569 231.200 C 253.403 231.530,252.953 232.880,252.569 234.200 C 252.185 235.520,251.738 236.870,251.575 237.200 C 251.411 237.530,251.048 238.610,250.768 239.600 C 250.487 240.590,250.020 241.684,249.729 242.031 C 249.438 242.379,249.200 243.133,249.200 243.708 C 249.200 244.283,249.020 244.864,248.800 245.000 C 248.580 245.136,248.400 245.755,248.400 246.375 C 248.400 246.995,248.130 247.726,247.800 248.000 C 247.470 248.274,247.197 248.971,247.194 249.549 C 247.187 250.831,246.305 253.455,245.667 254.093 C 245.410 254.350,245.197 255.019,245.194 255.580 C 245.187 256.837,244.298 259.462,243.667 260.093 C 243.410 260.350,243.200 261.053,243.200 261.656 C 243.200 262.259,243.020 262.864,242.800 263.000 C 242.580 263.136,242.400 263.755,242.400 264.375 C 242.400 264.995,242.130 265.726,241.800 266.000 C 241.470 266.274,241.197 266.971,241.194 267.549 C 241.187 268.831,240.305 271.455,239.667 272.093 C 239.410 272.350,239.200 273.053,239.200 273.656 C 239.200 274.259,239.020 274.864,238.800 275.000 C 238.580 275.136,238.400 275.755,238.400 276.375 C 238.400 276.995,238.130 277.726,237.800 278.000 C 237.470 278.274,237.200 279.005,237.200 279.625 C 237.200 280.245,237.020 280.864,236.800 281.000 C 236.580 281.136,236.400 281.755,236.400 282.375 C 236.400 282.995,236.130 283.726,235.800 284.000 C 235.470 284.274,235.200 285.005,235.200 285.625 C 235.200 286.245,235.020 286.864,234.800 287.000 C 234.580 287.136,234.400 287.755,234.400 288.375 C 234.400 288.995,234.130 289.726,233.800 290.000 C 233.470 290.274,233.200 291.005,233.200 291.625 C 233.200 292.245,233.020 292.864,232.800 293.000 C 232.580 293.136,232.400 293.755,232.400 294.375 C 232.400 294.995,232.130 295.726,231.800 296.000 C 231.470 296.274,231.200 297.005,231.200 297.625 C 231.200 298.245,231.020 298.864,230.800 299.000 C 230.580 299.136,230.400 299.755,230.400 300.375 C 230.400 300.995,230.130 301.726,229.800 302.000 C 229.470 302.274,229.200 303.005,229.200 303.625 C 229.200 304.245,229.020 304.864,228.800 305.000 C 228.580 305.136,228.400 305.755,228.400 306.375 C 228.400 306.995,228.130 307.726,227.800 308.000 C 227.470 308.274,227.200 309.005,227.200 309.625 C 227.200 310.245,227.020 310.864,226.800 311.000 C 226.580 311.136,226.400 311.755,226.400 312.375 C 226.400 312.995,226.130 313.726,225.800 314.000 C 225.470 314.274,225.200 315.005,225.200 315.625 C 225.200 316.245,225.020 316.864,224.800 317.000 C 224.580 317.136,224.400 317.755,224.400 318.375 C 224.400 318.995,224.130 319.726,223.800 320.000 C 223.470 320.274,223.200 320.928,223.200 321.454 C 223.200 321.980,223.033 322.723,222.829 323.105 C 222.625 323.487,222.361 324.115,222.242 324.500 C 222.039 325.156,220.555 325.200,198.487 325.200 L 174.948 325.200 174.274 323.786 C 173.903 323.009,173.600 322.030,173.600 321.610 C 173.600 321.190,173.441 320.749,173.246 320.629 C 173.051 320.508,172.802 319.913,172.692 319.305 C 172.511 318.310,172.061 316.913,171.174 314.600 C 171.005 314.160,170.777 313.440,170.668 313.000 C 170.474 312.220,169.791 310.211,169.174 308.600 C 169.005 308.160,168.777 307.440,168.668 307.000 C 168.474 306.220,167.791 304.211,167.174 302.600 C 167.005 302.160,166.777 301.440,166.668 301.000 C 166.474 300.220,165.791 298.211,165.174 296.600 C 165.005 296.160,164.777 295.440,164.668 295.000 C 164.474 294.220,163.791 292.211,163.174 290.600 C 163.005 290.160,162.777 289.440,162.668 289.000 C 162.474 288.220,161.791 286.211,161.174 284.600 C 161.005 284.160,160.777 283.440,160.668 283.000 C 160.474 282.220,159.791 280.211,159.174 278.600 C 159.005 278.160,158.777 277.440,158.668 277.000 C 158.474 276.220,157.791 274.211,157.174 272.600 C 157.005 272.160,156.777 271.440,156.668 271.000 C 156.474 270.220,155.791 268.211,155.174 266.600 C 155.005 266.160,154.777 265.440,154.668 265.000 C 154.474 264.220,153.791 262.211,153.174 260.600 C 153.005 260.160,152.777 259.440,152.668 259.000 C 152.474 258.220,151.791 256.211,151.174 254.600 C 151.005 254.160,150.777 253.440,150.668 253.000 C 150.474 252.220,149.791 250.211,149.174 248.600 C 149.005 248.160,148.777 247.440,148.668 247.000 C 148.558 246.560,148.246 245.570,147.974 244.800 C 147.703 244.030,147.354 243.040,147.200 242.600 C 147.046 242.160,146.697 241.170,146.426 240.400 C 146.154 239.630,145.842 238.640,145.732 238.200 C 145.623 237.760,145.383 237.040,145.200 236.600 C 145.017 236.160,144.777 235.440,144.668 235.000 C 144.474 234.220,143.791 232.211,143.174 230.600 C 143.005 230.160,142.777 229.440,142.668 229.000 C 142.474 228.220,141.791 226.211,141.174 224.600 C 141.005 224.160,140.777 223.440,140.668 223.000 C 140.474 222.220,139.791 220.211,139.174 218.600 C 139.005 218.160,138.777 217.440,138.668 217.000 C 138.474 216.220,137.791 214.211,137.174 212.600 C 137.005 212.160,136.777 211.440,136.668 211.000 C 136.474 210.220,135.791 208.211,135.174 206.600 C 135.005 206.160,134.777 205.440,134.668 205.000 C 134.474 204.220,133.791 202.211,133.174 200.600 C 133.005 200.160,132.777 199.440,132.668 199.000 C 132.474 198.220,131.791 196.211,131.174 194.600 C 131.005 194.160,130.777 193.440,130.668 193.000 C 130.474 192.220,129.791 190.211,129.174 188.600 C 129.005 188.160,128.777 187.440,128.668 187.000 C 128.474 186.220,127.791 184.211,127.174 182.600 C 127.005 182.160,126.777 181.440,126.668 181.000 C 126.474 180.220,125.791 178.211,125.174 176.600 C 125.005 176.160,124.777 175.440,124.668 175.000 C 124.474 174.220,123.791 172.211,123.174 170.600 C 123.005 170.160,122.777 169.440,122.668 169.000 C 122.474 168.220,121.791 166.211,121.174 164.600 C 121.005 164.160,120.777 163.440,120.668 163.000 C 120.474 162.220,119.791 160.211,119.174 158.600 C 119.005 158.160,118.777 157.440,118.668 157.000 C 118.474 156.220,117.791 154.211,117.174 152.600 C 117.005 152.160,116.777 151.440,116.668 151.000 C 116.474 150.220,115.791 148.211,115.174 146.600 C 115.005 146.160,114.777 145.440,114.668 145.000 C 114.474 144.220,113.791 142.211,113.174 140.600 C 113.005 140.160,112.777 139.440,112.668 139.000 C 112.474 138.220,111.791 136.211,111.174 134.600 C 111.005 134.160,110.777 133.440,110.668 133.000 C 110.558 132.560,110.246 131.570,109.974 130.800 C 109.703 130.030,109.354 129.040,109.200 128.600 C 109.046 128.160,108.697 127.170,108.426 126.400 C 108.154 125.630,107.842 124.640,107.732 124.200 C 107.623 123.760,107.383 123.040,107.200 122.600 C 107.017 122.160,106.777 121.440,106.668 121.000 C 106.474 120.220,105.791 118.211,105.174 116.600 C 105.005 116.160,104.777 115.440,104.668 115.000 C 104.474 114.220,103.791 112.211,103.174 110.600 C 103.005 110.160,102.777 109.440,102.668 109.000 C 102.474 108.220,101.791 106.211,101.174 104.600 C 101.005 104.160,100.777 103.440,100.668 103.000 C 100.486 102.268,99.940 100.648,99.186 98.600 C 98.350 96.330,97.930 94.437,98.174 94.043 C 98.593 93.364,145.367 93.421,145.879 94.100 " stroke="none" fill="#040404" fill-rule="evenodd"></path></g></svg>